<svg width="137" height="198" viewBox="0 0 137 198" fill="none" xmlns="http://www.w3.org/2000/svg">
<path d="M6.55021 45.0052C6.91098 43.6213 6.67449 48.2412 7.21326 45.1734C7.24966 45.8131 7.28721 46.4568 7.32361 47.0965C7.12407 47.2587 6.92503 47.4249 6.72549 47.5872C6.66674 46.7282 6.60799 45.8686 6.54923 45.0052C6.54956 45.0052 6.54988 45.0052 6.55021 45.0052ZM4.05131 43.8322C4.62042 44.6195 4.77216 47.1209 5.29734 44.4187C5.10202 44.2039 4.90675 43.9839 4.71143 43.7691C4.86292 42.831 5.01437 41.887 5.16502 40.9488C5.09056 40.6114 5.01602 40.2744 4.94238 39.937C5.28179 39.5074 5.62211 39.0815 5.96235 38.6519C5.91267 39.0334 5.86213 39.42 5.81245 39.8015C6.08807 41.3097 6.16345 42.6516 6.21478 44.6991C6.29509 44.5194 6.37469 44.3391 6.455 44.1593C6.3184 45.1984 6.18146 46.237 6.04486 47.2717C5.91077 46.3731 5.76165 45.3684 5.63668 44.5355C5.10451 45.8683 5.40069 48.2189 5.51169 49.4425C5.66319 51.1086 5.41015 50.7321 5.51608 51.9684C5.53264 52.1657 5.73098 52.1881 5.73433 52.5782C5.75006 54.547 5.64493 58.3708 5.18211 56.1346C5.24172 52.8942 4.87007 50.1306 5.00585 46.9516C4.4707 47.7926 4.2886 46.1178 4.05131 43.8322ZM5.75533 103.36C5.49542 102.378 5.60031 100.378 5.78072 99.0235C5.78072 99.0219 5.78072 99.0203 5.78072 99.0188C5.82046 98.7206 6.16587 98.0453 6.15179 99.0188C6.12767 100.606 5.58395 101.373 5.95307 102.206C5.88436 102.579 5.82321 102.97 5.75533 103.36ZM5.78755 106.809C5.65426 107.782 5.24456 107.341 5.35544 106.122C5.35512 106.122 5.35479 106.122 5.35447 106.122C5.40083 105.613 5.72466 106.612 5.39597 104.788C5.65169 104.415 5.88433 104.049 6.13177 103.68C6.13591 104.127 6.14262 104.534 6.14593 105.003C5.72561 104.688 5.9198 105.836 5.78755 106.809ZM5.41355 57.7796C5.79168 57.9327 5.7893 57.2916 6.0517 56.2C6.03928 57.2303 6.02603 58.2608 6.01361 59.2867C5.81334 58.7827 5.61382 58.2836 5.41355 57.7796ZM5.47214 33.5744C5.47214 33.5728 5.47214 33.5713 5.47214 33.5697C5.41253 33.2321 5.3527 32.8935 5.29392 32.5603C5.42888 32.3586 5.56325 32.1591 5.6982 31.9574C5.57153 30.7648 5.44486 29.5657 5.31736 28.3731C5.7296 28.518 5.66252 30.6588 5.95063 31.8383C5.82643 33.592 5.58715 34.4371 5.23777 34.5511C5.31557 34.2268 5.39434 33.9031 5.47214 33.5744ZM132.031 182.167C132.044 181.763 132.039 181.371 132.021 180.976C131.848 181.45 131.665 181.914 131.438 182.364C131.422 183.771 130.984 183.752 130.14 185.241C128.736 187.485 128.055 188.243 127.423 188.921C126.76 189.545 126.005 190.152 123.634 190.693C126.963 188.923 125.426 189.134 126.822 187.475C127.397 187.389 126.166 189.397 127.42 188.499C129.181 186.452 130.349 184.132 130.968 181.391C130.893 181.454 130.817 181.515 130.741 181.576C130.64 182.005 130.518 182.428 130.376 182.848C130.431 182.352 130.456 181.871 130.457 181.377C130.595 182.051 130.858 180.528 131.157 180.815C131.3 180.946 131.335 181.69 131.34 182.147C131.784 181.136 132.115 180.036 132.321 178.918C132.39 179.517 132.424 180.125 132.42 180.738C132.315 181.218 132.186 181.69 132.035 182.159C132.033 182.162 132.032 182.164 132.031 182.167ZM49.8831 5.51889C51.3915 5.12975 54.1325 5.06537 55.5751 5.49838C53.6765 5.505 51.7817 5.51226 49.8831 5.51889ZM4.9497 34.6656C5.01586 34.4948 5.08129 34.3293 5.14745 34.1585C5.26995 34.9126 5.39162 35.671 5.51413 36.4251C5.32296 36.5697 5.13175 36.7177 4.9414 36.8667C4.94389 36.1347 4.94722 35.3976 4.9497 34.6656ZM5.16258 82.9077C5.15101 82.3561 5.15728 82.3072 5.18455 81.6202C5.18439 81.621 5.18423 81.6218 5.18407 81.6226C5.19425 81.3502 5.30591 79.0716 5.4531 79.3256C5.45558 80.4569 5.4531 81.6636 5.4531 82.8212C5.35628 82.8563 5.26023 82.8639 5.16258 82.9077ZM5.24852 69.5912C5.24884 69.5897 5.24917 69.5881 5.24949 69.5866C5.27185 69.1748 5.31736 68.7848 5.32566 68.3598C5.55731 69.8897 5.1417 70.1314 5.25926 71.5213C5.37765 72.911 5.60696 73.7699 5.03759 74.9491C4.95231 74.5106 4.83031 74.0385 4.73096 73.5869C4.95862 71.6139 4.74438 71.0826 4.52004 69.5001C4.76341 69.5308 5.00514 69.5605 5.24852 69.5912ZM112.313 191.618C111.936 191.9 111.516 191.624 111.472 191.62C111.473 191.62 111.474 191.62 111.475 191.619C108.135 191.88 111.909 191.463 108.757 191.42C109.226 191.349 109.687 191.275 110.152 191.204C110.871 191.34 111.612 191.493 112.313 191.618ZM7.50672 185.361C7.55877 185.292 7.60829 185.218 7.66103 185.15C8.61781 186.529 9.14886 186.601 9.9493 187.755C9.05002 187.066 8.22649 186.261 7.50592 185.361C7.50618 185.361 7.50645 185.361 7.50672 185.361ZM4.56642 92.4552C4.40994 90.3549 4.34099 88.8012 4.58937 86.7842C4.58969 86.7826 4.59002 86.7811 4.59035 86.7795C4.60563 86.6632 4.77712 87.2257 4.82031 87.0739C4.79467 86.6577 4.75523 86.228 4.72462 85.8075C4.86194 85.7505 4.99923 85.6962 5.13573 85.6392C5.09682 86.823 5.05794 88.0074 5.01904 89.1956C5.09934 89.0202 5.17895 88.8405 5.25926 88.6652C5.30065 89.6735 5.34189 90.6781 5.38328 91.6864C5.15816 91.3358 4.93298 90.9859 4.70704 90.6396C4.65987 91.2445 4.61442 91.8503 4.56642 92.4552ZM35.3284 192.489C34.9951 192.399 35.6121 192.249 35.0947 192.172C34.5772 192.096 33.6234 192.263 33.8469 192.011C34.5436 191.977 35.2752 191.938 35.985 191.902C33.7006 191.447 31.4215 191.859 31.3865 191.297C33.5788 191.443 35.3815 191.375 37.5038 191.219C37.4161 191.666 35.2933 192.051 36.6299 192.47C36.2005 192.476 35.7493 192.485 35.333 192.488C35.3315 192.488 35.3299 192.489 35.3284 192.489ZM7.79959 2.96492C9.08301 1.99462 12.4118 0.170027 14.4991 0.00871396C15.0157 -0.0749671 16.7667 0.468745 16.7566 0.59462C16.7506 0.95853 14.9128 1.31111 16.9324 1.23562C16.267 1.32579 15.6257 1.46043 14.9794 1.62563C15.1544 1.83759 15.3242 2.05138 15.4857 2.26797C16.2379 2.06068 17.0065 1.90359 17.7838 1.79772C17.8292 1.87605 17.8739 1.95474 17.9182 2.0334C15.1652 2.3667 16.8252 2.47505 15.5115 3.02747C16.7922 2.88057 18.0819 2.88656 19.3236 3.0361C18.6042 3.01509 17.7619 3.06322 17.1286 3.12952C17.1029 3.54246 18.5645 3.29918 18.8211 3.38811C19.5361 3.60671 18.0793 3.60783 16.4484 3.99568C14.8065 4.35197 13.0803 5.20787 12.967 5.61132C13.9901 5.20796 15.1017 4.90351 16.1992 4.73873C15.9035 4.87898 15.6131 5.02878 15.3319 5.18659C12.8293 5.44527 10.1268 6.7713 7.88876 8.85256C7.71601 9.06774 7.54929 9.28799 7.39075 9.50758C7.58817 9.56569 7.78105 9.62911 7.97572 9.69237C7.73515 10.0115 7.50466 10.3437 7.29184 10.6795C7.51938 9.37439 6.42988 10.5958 5.16187 12.3016C5.44703 11.1926 6.35787 10.1174 5.97049 9.96469C4.37202 12.626 3.03937 16.0148 3.14019 19.2751C3.15905 20.1045 3.19827 20.9137 3.27156 21.6903C3.35931 22.6241 3.88657 22.6211 3.83794 24.8167C3.77999 24.7421 3.67535 24.7294 3.59918 24.6812C3.85171 28.4785 4.00266 30.7823 3.74517 34.7287C3.93468 34.5008 4.12498 34.2766 4.31448 34.0487C4.2201 33.2112 4.12421 32.3723 4.02983 31.5392C4.34276 30.9693 4.48087 31.8116 4.47756 29.3124C4.47507 27.2646 4.3369 28.4837 4.24417 27.9268C4.11758 27.1727 4.36661 26.511 4.22513 25.6999C4.11667 25.0729 3.85847 25.7513 3.92387 24.1157C4.25836 24.7734 4.60375 25.4444 4.94238 26.1065C4.86704 26.5056 4.79053 26.9015 4.71436 27.3005C4.62495 26.8971 4.5367 26.5006 4.44729 26.0972C4.60789 27.5177 4.75938 28.86 4.92578 30.3288C4.44226 29.8509 4.62355 31.3691 4.68067 32.1934C4.76999 33.4776 4.43723 32.3774 4.49269 33.2192C4.54902 34.0611 4.92079 34.969 4.84131 36.4905C4.62608 35.6751 4.43308 36.7843 4.23441 36.57C4.03574 36.3551 3.99175 34.7458 3.77496 36.2919C3.93971 39.2647 4.69628 36.0388 4.81885 38.0467C4.96621 40.4581 3.73295 41.032 3.46784 40.3132C3.2592 39.7476 3.30116 37.8013 3.09335 37.2312C2.71831 40.7171 3.45869 40.7473 3.60358 41.3437C4.13093 43.5097 2.72339 42.0547 3.2325 44.6197C2.96929 44.5714 2.73255 44.5324 2.4801 44.4841C2.52811 44.9267 2.59192 45.2205 2.62999 45.7553C3.14285 44.1784 3.12087 45.4691 3.12167 46.1315C3.12332 47.175 3.37348 45.5632 3.43806 45.8394C3.61087 46.5848 3.5324 47.7636 3.75836 47.0404C3.65321 47.3649 3.54775 47.7166 3.44343 48.0498C3.57445 49.269 4.67306 52.1345 4.45119 49.4074C4.85937 49.6617 4.66318 50.5439 4.60109 51.2323C4.53905 51.9206 4.799 51.9077 4.75098 52.5128C4.55889 54.9198 4.11423 53.3452 3.76568 52.9638C4.00577 56.1426 4.16461 53.0304 4.32522 57.6113C4.6092 58.0542 4.91223 55.9376 5.07616 57.7001C4.58281 58.0248 4.2284 59.3226 4.06449 61.8523C4.17792 62.0979 4.29236 62.3428 4.40578 62.5884C3.95042 63.9696 3.4769 63.2636 4.04154 65.8199C3.00251 64.4475 3.66723 65.3911 3.24422 67.6799C3.15894 68.1447 2.94337 67.0706 2.83409 67.7196C2.7848 68.0138 2.94752 68.728 2.82188 69.4464C2.75979 69.7971 2.35915 71.4371 2.54943 72.5728C3.05282 71.7397 3.48105 73.8975 3.89751 72.047C3.79484 75.4672 4.03654 77.8608 3.35017 74.0285C3.19783 74.8967 3.04614 75.7657 2.89463 76.6338C3.01468 77.239 3.13379 77.8493 3.25301 78.4587C2.83929 78.5507 2.72322 78.4583 2.796 80.8421C2.69835 79.8078 2.59908 78.7778 2.50061 77.7391C2.41706 77.704 2.33023 77.5595 2.24915 77.5942C2.40805 78.8664 2.47645 82.4485 2.58654 83.3166C2.69665 84.1848 2.72679 82.5082 2.8336 82.7582C3.71432 84.8405 3.06475 84.6754 3.2159 86.1696C3.30532 87.0466 3.40241 84.9527 3.4405 85.4219C3.58009 87.1615 3.11201 87.9685 3.10604 89.511C3.37173 88.9631 3.64155 88.4195 3.90972 87.8847C3.89564 89.5027 3.89328 91.3063 3.97856 92.8103C4.01185 93.4007 4.20945 92.9546 4.22269 93.051C4.29058 93.5294 4.39812 95.476 4.39895 95.6821C4.40053 97.2334 4.12684 97.2777 4.11185 98.7851C4.08868 98.1934 4.0678 97.6369 4.04545 97.0583C3.60173 96.7953 3.15803 96.527 2.71349 96.2639C2.6812 97.7413 2.64958 99.2193 2.6173 100.701C2.76548 99.6183 2.91295 98.5314 3.06112 97.4486C3.41961 99.141 3.77891 100.834 4.13822 102.526C3.918 103.407 3.69783 104.285 3.47761 105.166C3.5357 107.56 4.42965 107.078 3.64654 108.213C3.71275 108.919 3.77891 109.625 3.84429 110.33C3.73255 110.23 3.62059 110.13 3.50886 110.029C3.57758 110.88 3.64584 111.73 3.71539 112.581C4.1111 111.686 4.52751 110.809 4.91162 109.924C4.99761 111.598 4.66191 111.63 4.57814 111.88C4.35625 112.542 4.65554 113.856 4.45022 114.382C4.37972 114.56 4.15873 112.92 3.90386 113.485C3.85445 113.595 2.91754 115.792 3.13388 117.193C3.3036 117.167 3.51172 117.058 3.69635 117.001C3.79944 118.886 2.91348 119.847 2.66515 119.597C2.839 120.602 2.85353 122.069 3.12509 122.275C3.13171 122.788 3.13799 123.297 3.14462 123.81C2.48325 123.276 2.60418 125.416 3.17294 125.556C3.18701 124.675 3.20183 123.792 3.2159 122.911C3.91302 123.577 4.3338 120.899 3.68805 126.472C3.32541 127.537 3.73745 124.578 3.46589 125.446C3.30783 126.954 3.44008 128.37 3.18758 129.804C2.87216 131.588 2.56878 129.393 2.97031 133.55C3.97623 124.381 3.64985 134.807 3.96196 139.113C2.96843 140.297 2.65374 143.933 2.94931 148.941C3.22583 148.419 3.08336 146.844 3.1744 145.936C3.26546 145.028 3.42951 146.01 3.55866 144.88C3.68778 143.749 3.86331 141.347 4.05863 140.202C4.21513 141.172 4.58512 145.958 4.14066 142.793C3.86667 145.156 3.58512 146.265 3.53376 149.193C3.96509 150.07 4.23368 150.005 4.24612 152.859C3.64674 151.171 3.23017 154.415 2.61095 153.701C2.75518 151.677 3.35702 152.808 3.64508 151.637C3.67387 151.517 3.523 149.632 3.53376 149.193C2.99312 151.096 2.79188 151.754 2.14857 150.584C2.20487 151.93 2.12411 152.767 2.43127 152.89C2.29802 153.17 2.16465 153.452 2.03139 153.729C2.03471 154.167 2.04705 154.561 2.04457 155.025C2.50792 154.386 2.22268 155.626 2.43274 156.507C2.64303 157.388 3.0088 156.206 3.01376 158.626C3.12222 157.819 3.21528 157.082 3.31795 156.301C3.43715 157.862 3.55712 159.428 3.67633 160.989C3.95944 159.892 4.37996 157.517 4.75245 157.582C4.61182 158.301 4.85897 160.763 4.86914 161.033C4.90723 162.077 4.67231 161.508 4.66651 161.587C4.55236 163.226 4.63234 164.577 4.2764 165.199C4.437 166.431 4.34544 167.36 4.35452 168.667C4.35948 169.386 4.62093 169.246 4.5713 169.667C4.24015 172.464 3.9023 169.799 4.54543 175.195C4.72755 174.542 4.91386 173.897 5.09764 173.244C5.16636 173.854 5.23546 174.46 5.30418 175.069C5.27106 175.477 5.23769 175.881 5.20457 176.289C4.80969 176.28 4.41397 176.27 4.01908 176.261C4.00284 176.598 3.98694 176.937 3.97086 177.275C3.96564 177.381 3.96148 177.487 3.95834 177.593C3.95064 177.487 3.944 177.381 3.93844 177.275C3.9051 176.617 3.87178 175.958 3.83843 175.3C3.76895 175.23 3.69943 175.165 3.62994 175.095C3.56124 175.823 3.49214 176.549 3.42294 177.275C3.38379 177.687 3.35991 178.096 3.35232 178.512C3.49096 178.524 3.63054 178.534 3.76918 178.544C3.87421 181.042 3.815 181.219 5.00158 183.302C5.71851 185.008 7.06551 185.916 7.87132 186.528C8.03737 186.856 8.21662 187.18 8.41285 187.502C8.65606 187.595 8.90093 187.681 9.14438 187.758C9.35838 188.188 9.60234 188.617 9.86723 189.033C10.3096 188.902 10.4138 188.941 9.21712 187.656C9.91121 187.81 12.1755 189.76 13.3077 190.349C14.1298 190.839 13.0114 190.755 13.0979 190.841C13.3988 191.176 14.9794 191.606 15.3021 191.698C16.6684 192.177 17.6887 192.291 18.9983 192.412C19.075 192.418 19.1929 192.445 19.3236 192.477C19.643 192.553 20.0275 192.671 20.0725 192.676C20.5724 192.717 21.8061 192.832 21.9465 192.836C29.1842 193.013 21.4505 191.983 28.1806 192.092C27.979 191.956 27.7937 191.821 27.5964 191.686C28.1048 191.677 28.6186 191.67 29.1269 191.661C29.7715 191.775 28.9917 191.981 30.2719 191.815C30.1886 191.982 30.1049 192.149 30.0172 192.316C30.5741 192.225 31.1109 192.136 31.6809 192.046C32.5754 192.626 35.8409 192.758 35.6088 193.439C35.5298 193.671 33.2147 193.909 34.4381 194.156C35.4321 194.205 34.7593 193.928 35.1648 193.914C38.0939 193.813 37.9237 194.201 39.1207 194.097C39.3092 193.931 39.5074 193.761 39.7002 193.593C40.1516 193.642 40.6043 193.691 41.0601 193.74C41.1653 193.628 41.275 193.516 41.3802 193.404C40.9549 193.397 40.476 193.389 40.0857 193.382C40.6299 192.949 45.6272 192.755 43.7215 193.124C42.9455 193.273 41.5242 193.21 42.4224 193.721C43.7597 193.648 45.2769 193.572 46.6844 193.499C46.7283 193.609 46.769 193.719 46.8129 193.829C48.7097 193.758 46.9847 193.318 46.9881 193.082C47.422 193.075 47.8604 193.069 48.2943 193.063C48.4783 193.169 48.6531 193.281 48.8458 193.384C48.8634 193.215 49.1064 192.82 50.3996 192.966C51.2311 193.062 49.9217 193.49 51.5072 193.431C51.3887 193.166 50.816 192.843 52.582 192.758C52.7574 193.034 52.9999 193.288 53.1358 193.578C55.3322 193.313 56.3316 193.739 58.9096 193.431C60.5451 193.235 62.7855 192.542 63.8423 193.61C65.0386 193.639 64.6589 193.372 65.0129 193.313C66.6836 193.029 67.9262 193.536 68.2375 193.566C70.2229 193.757 71.1131 193.582 72.7308 193.821C72.6431 193.623 72.5954 193.436 72.5252 193.243C71.0431 193.539 70.2925 193.525 68.2141 193.461C68.9111 193.422 69.6084 193.381 70.3054 193.341C70.1914 193.181 70.0785 193.02 69.9689 192.86C63.5407 193.493 65.0403 192.494 70.4292 192.275C70.8939 192.572 71.3756 192.869 71.8359 193.167C74.949 192.716 76.414 193.107 79.9347 193.201C80.3532 193.211 81.8777 193.04 82.533 193.032C82.5221 193.031 82.5112 193.03 82.5003 193.028C82.9079 192.748 82.3558 192.619 82.29 192.368C82.6451 192.336 83.0004 192.305 83.3555 192.274C84.1485 192.465 83.8697 192.622 85.4304 192.576C85.22 192.386 85.0123 192.195 84.8019 192.005C86.512 191.998 87.6311 192.205 89.2228 192.116C88.9553 192.188 88.6911 192.26 88.4236 192.332C91.8877 192.516 89.1309 193.635 91.7487 193.078C91.9152 193.176 92.0775 193.274 92.244 193.372C91.1656 193.396 90.0866 193.419 89.0125 193.443C88.9906 193.582 88.9669 193.719 88.9494 193.857C90.1026 193.816 91.2614 193.773 92.4146 193.732C91.5727 193.825 90.7259 193.918 89.884 194.01C91.2212 194.076 92.5588 194.143 93.896 194.209C92.476 193.701 94.317 193.639 93.9708 193.135C96.3386 193.554 98.1985 194.106 101.869 193.753C102.596 193.683 102.201 193.331 104.266 193.759C103.766 193.199 106.353 192.937 106.021 192.404C105.302 192.43 104.556 192.446 103.859 192.478C104.653 192.662 104.785 193.17 103.579 193.321C102.04 193.513 99.7953 193.161 99.8872 193.725C99.2735 193.698 98.7027 193.683 98.1066 193.66C98.352 193.52 98.5923 193.38 98.8333 193.24C97.1371 193.459 96.0713 193.388 95.256 193.035C97.277 192.954 99.2938 192.874 101.315 192.794C101.017 192.77 100.715 192.745 100.418 192.722C101.948 192.362 100.369 192.021 103.224 191.944C103.206 192.109 103.192 192.274 103.175 192.439C104.214 191.999 107.059 192.001 106.152 191.494C107.011 191.65 107.186 191.748 107.673 191.475C109.94 191.86 111.396 192.347 110.589 192.928C111.431 192.835 112.273 192.741 113.11 192.648C112.624 192.489 112.136 192.33 111.65 192.171C113.114 192.181 114.589 192.191 116.05 192.2C116.19 192.671 113.231 192.343 114.085 192.763C114.255 192.848 115.043 192.667 115.251 192.714C117.434 193.229 114.006 192.857 114.65 193.251C116.937 193.337 116.33 193.688 117.324 193.697C117.755 193.695 118.49 193.65 119.803 193.29C119.942 193.405 120.094 193.521 120.23 193.634C121.817 193.322 121.613 193.042 122.879 192.557C123.653 192.242 124.885 192.269 125.534 191.465C125.612 191.301 124.057 191.617 126.721 189.847C128.667 188.298 128.17 189.289 129.278 188.425C130.453 187.525 131.573 184.502 132.545 183.904C132.161 184.55 131.676 185.364 131.17 186.01C131.113 186.367 131.047 186.717 130.966 187.072C131.939 185.432 132.947 183.697 133.008 182.372C134.347 180.095 133.853 177.105 133.251 177.883C133.292 178.683 133.611 177.833 133.355 178.935C133.207 179.036 133.059 179.14 132.91 179.234C133.016 178.438 133.041 177.744 133.076 177.275C133.122 176.651 133.223 176.437 133.46 176.928C133.47 176.635 133.479 176.344 133.489 176.05C133.188 175.997 132.886 175.951 132.584 175.898C132.55 175.547 132.517 175.195 132.483 174.844C132.549 174.454 132.616 174.063 132.683 173.669C133.16 174.199 133.175 175.103 133.442 172.113C133.277 172.104 133.113 172.091 132.948 172.082C133.158 169.579 133.557 169.513 133.542 166.369C134.114 168.781 133.1 170.1 134.248 170.091C134.172 170.697 134.096 171.307 134.021 171.912C134.187 172.004 134.354 172.095 134.52 172.183C134.432 168.934 133.338 163.537 134.064 161.362C133.975 161.099 133.898 160.835 133.803 160.567C134.241 158.436 133.258 157.516 133.824 155.354C133.883 155.131 134.807 155.598 134.774 152.784C134.654 152.854 134.452 152.891 134.3 152.948C134.374 152.338 134.451 151.732 134.526 151.127C134.416 151.018 134.305 150.903 134.193 150.793C134.15 151.832 134.106 152.869 134.063 153.908C134.025 153.044 133.987 152.175 133.949 151.312C133.768 152.439 133.766 152.947 133.475 152.268C133.458 151.29 133.439 150.311 133.422 149.333C133.348 149.232 133.272 149.132 133.198 149.031C132.976 149.505 132.759 149.983 132.534 150.457C132.715 147.909 132.725 145.694 133.161 143.739C133.235 143.406 133.524 144.584 133.263 142.314C133.416 142.278 133.541 142.217 133.682 142.178C133.253 139.398 133.381 138.485 133.691 135.586C133.402 137.463 133.59 135.789 133.435 135.311C133.329 134.983 133.344 136.261 133.233 136.117C133.122 135.972 132.674 134.311 132.62 135.731C133.538 139.213 132.44 140.161 132.882 144.634C132.763 143.945 132.644 143.252 132.526 142.564C132.446 142.888 132.373 143.178 132.288 143.529C132.467 141.034 132.351 142.247 132.209 141.222C132.068 140.196 131.947 138.332 131.908 137.082C131.896 136.688 132.102 137.103 132.121 136.215C132.135 135.61 131.829 133.956 132.189 133.575C132.423 133.325 133.069 135.981 133.067 132.308C133.297 131.617 133.225 133.378 133.253 133.416C133.526 133.736 133.732 131.478 133.523 130.434C133.505 130.35 133.292 131.174 133.209 130.278C133.009 128.151 133.253 126.923 133.584 125.546C133.196 125.397 132.733 123.607 132.877 121.38C132.766 121.266 132.654 121.157 132.542 121.043C132.601 121.389 132.659 121.735 132.717 122.081C132.648 122.458 132.597 122.857 132.515 123.226C132.42 120.986 131.886 120.669 131.691 119.594C131.023 115.918 132.435 118.146 132.678 118.809C132.58 119.287 132.47 119.749 132.366 120.223C132.501 120.17 132.637 120.117 132.773 120.069C132.769 114.566 133.649 119.231 133.9 116.438C133.236 115.719 133.172 113.667 133.593 111.054C133.59 110.765 133.589 110.474 133.585 110.185C133.488 110.137 133.34 110.137 133.277 110.059C133.164 106.91 134.186 106.35 134.283 106.051C134.713 104.727 134.118 103.696 134.113 103.306C134.093 101.662 134.357 101.184 134.243 99.6186C134.121 97.9352 133.918 99.0863 133.737 98.5742C133.593 98.1633 133.567 96.8353 133.418 96.2866C133.54 96.5046 133.66 96.7469 133.782 96.9642C133.949 95.2195 134.111 93.7935 134.151 91.8119C133.258 89.5759 134.765 87.6734 133.543 88.4448C133.46 90.3216 133.32 91.3709 133.009 92.3751C132.969 91.1432 132.931 89.9104 132.891 88.6785C133.025 88.3191 133.156 88.0639 133.292 87.6387C133.007 86.7181 133.13 84.5838 133.046 83.7459C132.654 79.8215 132.169 81.0355 132.985 77.4533C133.065 80.0352 133.461 80.0311 133.406 82.5916C133.69 82.0391 133.631 80.738 133.97 81.5798C133.887 79.1027 133.584 79.9035 133.315 78.9394C133.083 78.1079 133.07 76.4334 132.768 76.528C132.934 76.3568 133.094 76.2244 133.26 76.0537C133.258 74.4492 133.258 72.8447 133.257 71.2402C133.43 71.9242 133.603 72.6079 133.775 73.2918C133.84 72.7749 133.905 72.2572 133.971 71.7403C133.433 67.794 134.419 60.9889 133.067 62.076C133.024 60.1731 133.194 59.9351 133.449 58.9005C133.347 58.7865 133.261 58.6757 133.147 58.5617C133.255 57.3342 132.869 56.3919 132.969 55.3091C133.069 54.2263 133.433 53.9575 132.821 53.7996C132.996 53.0981 133.142 52.4007 133.305 51.7037C133.166 51.283 133.029 50.8628 132.891 50.4465C132.964 49.7889 133.036 49.1297 133.109 48.4721C132.817 48.1206 132.943 45.5346 132.747 44.3947C133.062 43.3125 134.053 43.3422 133.875 40.7963C133.629 40.862 133.384 40.9268 133.138 40.9925C133.19 40.4095 133.241 39.8252 133.292 39.2377C133.372 39.2027 133.453 39.1723 133.533 39.1373C133.508 39.4353 133.483 39.7294 133.458 40.0275C133.593 39.7688 133.729 39.5154 133.864 39.2611C133.663 38.3711 133.462 37.48 133.261 36.5857C133.109 37.7912 132.956 38.9972 132.804 40.2028C132.623 38.69 132.803 37.6371 132.602 36.3216C132.942 35.1774 133.137 35.5999 133.506 36.0646C133.474 35.6394 133.444 35.2093 133.412 34.7841C133.781 35.0646 134 34.3454 133.97 36.831C134.075 36.6601 134.176 36.4858 134.285 36.3193C134.268 35.9116 134.357 35.6471 134.317 35.2C134.206 33.981 133.559 33.0465 133.332 33.1298C133.213 33.1747 133.44 34.3767 133.272 34.3285C132.862 34.2095 133.046 31.4524 132.635 35.429C132.374 34.1092 132.571 33.8144 132.646 32.3587C132.51 32.4726 132.374 32.5833 132.238 32.6928C132.3 32.0178 132.363 31.3419 132.426 30.667C133.127 31.6053 133.391 26.6285 134.004 31.1086C134.035 29.7847 134.067 28.4652 134.1 27.1457C134.172 27.4175 134.244 27.6893 134.316 27.9611C134.277 28.5574 134.24 29.1501 134.203 29.7463C134.334 29.045 134.465 28.3424 134.597 27.641C134.434 25.9836 134.183 25.3339 133.873 24.5754C133.647 26.5042 133.956 25.874 134.017 27.377C133.821 27.3245 133.641 27.3939 133.435 27.2625C133.841 26.4859 133.545 23.9524 133.526 23.365C133.465 21.577 133.864 22.9791 133.873 21.7831C133.878 20.9785 133.773 20.0768 133.823 19.2751C133.848 18.8689 133.895 18.4941 134.002 18.1486C133.782 18.1818 133.558 18.277 133.36 18.3587C133.138 16.5033 133.377 16.844 133.397 16.6421C133.343 13.4433 132.214 11.8058 130.019 9.02658C130.252 9.42437 130.475 9.82924 130.677 10.2424C128.687 8.40125 130.03 9.67524 131.014 11.7114C130 9.83991 128.858 9.17693 127.75 8.26415C126.657 7.31857 124.679 5.8277 123.883 5.32442C125.915 5.99196 127.726 7.53894 129.281 9.30104C129.282 8.94957 129.25 8.62321 129.236 8.24256C127.876 7.48407 127.419 6.75846 127.061 6.39904C125.994 5.39489 125.804 5.79411 125.268 4.97262C125.226 5.12166 125.186 5.2448 125.148 5.3845C122.656 3.83794 119.38 2.97948 117.475 3.56316C117.423 3.45088 117.373 3.34015 117.324 3.22989C117.213 2.98331 117.107 2.73804 116.968 2.4829C115.718 2.75523 114.648 2.47636 113.596 2.54003C112.548 2.60378 112.947 2.89615 111.715 3.00876C111.487 3.02946 111.012 2.84646 110.451 2.98141C109.884 3.11708 107.794 4.12581 107.544 3.24458C106.487 3.24044 105.488 3.20822 104.453 3.19332C105.461 3.14365 106.47 3.09554 107.474 3.04586C106.615 2.83228 105.761 2.61934 104.901 2.40576C104.792 2.59619 104.682 2.79005 104.577 2.978C102.261 3.20981 100.581 2.89847 98.2443 2.97214C97.8541 2.98456 98.7747 3.36105 97.0433 3.26509C95.3114 3.16906 94.0262 2.46636 91.0756 2.73777C90.9265 2.75185 90.0527 3.29003 88.996 2.91745C88.7555 2.83301 89.7676 2.70806 89.2156 2.59716C88.6631 2.48621 86.198 2.39498 86.0051 2.13087C86.0314 2.2244 86.1852 2.32131 86.2598 2.4165C85.8389 2.4612 85.4138 2.50593 84.9886 2.5498C84.9492 2.38506 84.9066 2.22008 84.8671 2.05617C82.4468 2.43949 81.196 3.06478 77.6096 2.85789C78.618 3.09714 79.6268 3.33735 80.6308 3.5766C80.9071 3.40853 81.1838 3.23933 81.4556 3.07125C83.1085 3.13831 84.7658 3.20488 86.4186 3.27193C86.6905 3.08067 86.9576 2.88997 87.2295 2.69871C87.6678 2.72355 88.1019 2.74761 88.5403 2.77244C88.4307 2.9107 88.3202 3.04823 88.2062 3.18648C89.0742 3.15255 89.9432 3.11789 90.8068 3.08395C89.0487 3.90005 85.8969 3.01453 86.1242 3.6972C85.7342 3.59128 85.3436 3.48462 84.9536 3.37788C84.7825 3.7089 83.9894 3.61363 82.5912 3.56146C82.9113 3.72457 83.2648 3.88545 83.5586 4.05021C82.1993 3.82007 79.7881 3.84242 78.3806 3.75384C77.7625 3.71493 78.3799 3.47494 78.196 3.44672C77.2533 3.29935 75.4514 3.71811 75.0743 3.68499C72.8206 3.48791 71.3561 2.694 68.8962 3.21724C71.4351 3.3464 70.0539 3.29185 70.9572 3.58246C71.2399 3.67357 74.5198 3.86364 70.4127 3.77923C69.9312 3.76866 62.479 3.22013 64.9286 2.79978C63.7228 2.93391 62.7787 3.089 61.6737 3.2314C58.9727 2.12362 59.9074 3.1643 60.6923 3.73724C60.2495 3.73972 59.8282 3.74554 59.3721 3.74554C60.3412 3.14362 55.4042 3.10625 53.7292 3.4101C53.168 3.51111 54.7373 3.70378 53.4394 3.79485C52.8214 3.75264 52.1203 3.69799 51.4673 3.65081C52.4144 4.03164 50.5557 4.1784 50.5817 4.56581C49.3935 4.22059 48.4847 3.48886 49.1377 3.09225C48.1557 3.25284 47.1685 3.41323 46.1865 3.57465C46.6425 3.66654 47.1045 3.75764 47.5605 3.84954C44.3508 3.60612 40.2237 4.16001 39.5528 3.34614C39.1275 3.35194 38.6977 3.35695 38.2724 3.36274C38.1408 3.50018 38.0137 3.63788 37.8821 3.77532C35.9577 3.65612 34.0375 3.53614 32.113 3.41694C33.8266 3.33165 34.2345 3.13602 36.0315 3.29488C35.339 3.13681 34.6336 2.97787 33.9543 2.8198C31.2489 3.24535 30.8798 3.52504 26.8065 3.39839C26.6223 3.39259 23.5447 3.03572 23.4394 3.00094C22.9573 2.84199 23.6892 2.61108 23.4745 2.53075C22.8781 2.30555 19.2545 1.7401 19.3246 1.65482C20.2104 0.608305 32.4023 0.594434 35.6997 0.540617C63.1705 0.0924289 90.1554 0.485844 117.324 0.591979C125.154 0.509674 132.638 5.91521 135.053 13.3985C135.181 13.7863 135.273 13.5709 135.332 13.7359C135.696 14.7724 135.655 15.8727 135.706 16.2641C135.812 17.108 135.966 16.6125 136.041 17.2371C136.114 17.9174 136.148 18.5966 136.146 19.2751C136.122 24.1563 136.021 28.8418 136.055 33.7794C136.058 34.1389 135.88 33.7718 135.911 34.4032C135.928 34.7292 136.201 35.7495 136.206 36.4852C136.22 39.0546 136.132 41.2129 136.136 43.9227C136.139 45.4048 136.116 47.6282 136.12 49.2852C136.121 50.0171 136.246 50.7796 136.251 51.5027C136.256 52.5288 136.003 52.3192 135.987 52.4771C135.919 53.1698 136.197 53.2658 136.19 53.9235C136.177 55.1468 135.991 55.2127 136.007 56.7648C136.018 57.8742 136.165 60.4132 136.208 61.8119C135.993 65.083 136.078 69.2049 136.149 72.2567C136.192 74.0631 135.932 74.2305 135.933 74.9672C135.938 77.5626 136.27 79.5323 136.28 81.97C136.294 85.2053 136.075 88.0723 136.059 91.2067C136.057 91.715 136.295 91.5983 136.301 92.097C136.323 93.943 136.366 96.3036 136.333 97.9479C136.295 99.7805 135.95 100.456 136.02 102.25C136.041 102.775 136.344 102.93 136.383 103.811C136.444 105.218 136.177 106.761 136.147 107.743C136.107 109.089 136.416 107.919 136.375 109.734C136.373 109.809 136.152 110.08 136.163 110.47C136.192 111.606 136.366 111.493 136.35 113.155C136.347 113.314 136.137 115.518 136.136 115.737C136.133 117.026 136.059 119.621 136.104 120.384C136.263 123.112 136.595 120.964 135.875 123.284C136.051 124.305 136.23 125.318 136.401 126.401C136.241 125.678 136.011 128.611 136.025 128.817C136.146 130.522 136.426 129.506 136.379 131.668C135.732 128.813 136.296 134.456 136.313 135.715C136.393 141.774 136.231 147.283 136.235 153.373C136.237 155.412 136.374 158.144 136.371 160.301C136.37 160.804 136.217 160.424 136.214 160.866C136.212 161.308 136.384 160.818 136.375 161.322C136.315 164.457 135.99 166.913 136.396 169.785C136.337 169.925 136.291 169.921 136.227 170.152C136.511 171.993 136.273 175.167 136.124 177.275C136.083 177.962 136.011 178.544 135.958 178.972C135.489 182.035 135.398 182.868 134.491 184.954C133.295 187.789 129.78 190.697 131.731 189.736C130.384 191.327 128.818 192.647 126.968 193.656C126.762 193.767 126.8 193.512 126.717 193.555C126.194 193.821 126.108 194.065 125.753 194.254C124.786 194.742 126.287 193.796 124.919 194.498C124.185 194.829 123.834 195.24 121.627 195.797C120.228 196.123 118.779 196.29 117.324 196.29C106.839 196.293 95.7059 196.245 85.1313 196.222C84.3201 196.22 84.8541 196.415 83.8368 196.402C80.3027 196.359 73.9767 196.031 70.9293 196.076C67.882 196.121 68.5695 196.406 66.6626 196.525C66.2943 196.548 66.5963 196.386 66.263 196.383C64.0224 196.368 61.3511 196.115 59.5359 196.077C58.3354 196.052 58.4315 196.307 57.5988 196.325C56.3579 196.352 55.0807 196.094 54.4186 196.085C51.306 196.049 49.166 196.257 46.2591 196.151C46.3728 196.207 46.448 196.259 46.5442 196.314C43.1024 196.305 39.6651 196.296 36.2233 196.287C36.3855 196.338 36.5424 196.39 36.7046 196.442C32.6665 196.414 33.1273 195.858 33.4824 197.033C33.1887 197.074 32.8774 197.122 32.5968 197.16C32.7108 196.555 30.268 196.112 27.1595 195.958C26.9315 195.946 25.4016 196.536 25.5683 195.839C25.1692 196.01 24.9315 196.127 24.5939 196.277C23.9364 196.066 23.2699 195.858 22.6124 195.647C22.2573 195.679 21.8973 195.709 21.5422 195.741C21.4896 195.877 21.5301 196.019 21.416 196.153C20.8648 196.16 20.1198 196.146 19.3236 196.124C17.4528 196.103 15.3918 195.643 14.4138 195.372C10.741 194.473 7.15845 192.42 5.47404 189.931C4.50376 188.87 5.19174 190.168 3.89618 188.429C3.86263 188.151 3.8389 187.89 3.81643 187.604C2.3792 186.457 2.44187 185.918 1.69689 183.655C1.24283 182.105 0.860011 181.1 0.687195 179.562C0.649153 179.172 0.833554 179.208 0.802953 178.946C0.762404 178.585 0.67448 177.952 0.623969 177.275C0.549582 176.443 0.462623 175.553 0.458715 175.235C0.39415 170.351 0.421633 166.155 0.487034 161.503C0.493657 161.003 0.317969 161.651 0.325421 161.133C0.337118 160.301 0.607084 160.791 0.620328 160.309C0.655753 158.964 0.37108 158.953 0.356181 157.077C0.307364 150.899 0.521212 143.796 0.540254 137.342C0.540254 137.14 0.373461 137.152 0.371805 136.933C0.36365 135.504 0.589112 134.057 0.586638 132.76C0.583326 130.607 0.349006 128.989 0.349833 126.862C0.350661 122.705 0.470641 118.991 0.477268 114.716C0.483064 111.217 0.460817 108.178 0.461644 104.342C0.464956 87.5827 -0.0644722 70.4816 0.217027 53.6087C0.224473 53.1793 0.371839 53.3541 0.365458 53.2231C0.301709 51.9779 0.102872 51.8668 0.519258 51.4239C0.437196 49.8376 0.12437 49.337 0.146719 47.4213C0.158435 46.4002 0.643293 47.1626 0.393288 45.4351C0.167282 43.8753 -0.0984395 45.5966 0.173084 40.9582C0.180548 40.8354 0.476087 40.2309 0.399147 39.2664C0.322977 38.2974 0.111354 39.4191 0.0476022 37.0863C-0.0939236 31.8851 0.129406 25.3709 0.084847 19.2751C0.0825243 18.886 0.0908322 18.5035 0.109698 18.1188C-0.00559616 17.6333 0.749764 13.0346 1.17397 12.177C1.74692 10.4782 1.34645 10.6912 2.51173 8.62558C3.47603 7.05927 4.61915 6.03205 6.15744 4.56537C6.34382 4.4048 6.46017 3.89289 7.79959 2.96492ZM132.322 176.055C132.071 175.695 131.147 175.046 131.428 172.872C131.455 172.666 132.091 173.778 132.192 172.578C132.259 173.753 132.28 174.897 132.323 176.055C132.323 176.055 132.323 176.055 132.322 176.055ZM18.9557 5.20329C17.5227 5.19284 16.0781 5.40252 14.6972 5.82923C15.6029 5.39928 16.5671 5.06246 17.5634 4.82924C18.0421 4.93085 18.5053 5.05668 18.9557 5.20329ZM14.5625 190.992C14.5611 190.992 14.5598 190.991 14.5585 190.991C16.0632 191.388 17.6111 191.531 19.129 191.431C18.9679 191.517 18.8042 191.6 18.6388 191.68C17.4149 191.762 16.1647 191.687 14.9331 191.451C14.8053 191.3 14.6812 191.146 14.5625 190.992ZM5.04878 183.182C4.75817 182.165 5.02665 182.344 5.01096 181.755C5.01064 181.755 5.01033 181.755 5.01002 181.755C5.00459 181.601 4.85616 180.927 4.8073 180.667C4.72217 180.787 4.64678 180.937 4.56785 181.069C4.08103 179.865 4.12276 177.886 4.42101 177.275C4.53277 177.003 4.65736 176.956 4.77698 177.275C4.92776 177.623 5.03605 178.441 5.39155 179.873C5.23929 179.814 5.08866 179.757 4.937 179.693C5.40101 182.558 6.92792 185.634 5.04878 183.182ZM131.922 150.281C131.467 147.545 131.371 146.668 131.683 143.349C131.812 143.818 131.941 144.286 132.07 144.755C131.938 145.303 131.808 145.848 131.676 146.396C131.676 146.397 131.676 146.399 131.676 146.4C131.814 146.51 131.953 146.62 132.091 146.725C132.035 147.909 131.978 149.098 131.922 150.281ZM4.20804 78.8163C5.1175 78.0536 4.58887 78.2737 4.79395 80.4519C4.86515 81.2061 5.02428 80.4711 5.05077 80.9403C5.19549 83.4739 4.58615 83.6765 4.26907 83.111C4.24755 81.6771 4.22791 80.2285 4.20804 78.8209C4.20804 78.8194 4.20804 78.8178 4.20804 78.8163ZM5.14811 13.4947C5.14868 13.4934 5.14924 13.492 5.1498 13.4906C5.37555 13.5212 5.07985 14.4222 5.67457 13.5091C5.35799 14.2554 5.10218 15.0275 4.91202 15.8203C4.9472 15.5838 4.99109 15.341 5.03836 15.1051C4.90607 15.2867 4.77561 15.4753 4.65068 15.665C4.83283 16.0107 4.61367 16.2295 4.39717 17.0771C4.70123 16.8797 5.00942 16.6952 5.32 16.5257C5.06697 17.4133 4.89873 18.3371 4.82063 19.2751C4.81776 19.313 4.81488 19.3509 4.81201 19.3887C4.74337 19.4018 4.67461 19.4153 4.60597 19.4284C4.6937 19.8317 4.78239 20.2309 4.87012 20.6341C4.78817 20.7437 4.70696 20.8493 4.62501 20.9589C4.68709 21.4455 4.74911 21.9327 4.81201 22.4193C4.6135 22.5674 4.52771 21.4951 4.57814 23.396C4.37449 22.8129 4.17146 22.2311 3.96782 21.6436C3.9724 20.8541 3.97704 20.0646 3.98172 19.2751C3.9925 17.2922 4.38879 15.3181 5.14811 13.4947ZM4.48781 98.6332C4.44973 95.4895 4.5936 96.3749 5.04394 97.1027C4.85854 97.6112 4.67321 98.1247 4.48781 98.6332ZM77.5186 192.512C78.4306 192.205 79.3465 191.901 80.2805 191.604C82.1397 191.433 83.9995 191.993 82.6008 192.212C80.917 192.475 79.1585 192.181 77.5186 192.512ZM119.712 192.187C117.57 192.309 119.541 191.727 119.935 191.419C120.553 191.648 121.353 191.461 122.578 191.042C121.464 191.512 120.077 192.164 119.712 192.188C119.712 192.188 119.712 192.188 119.712 192.187ZM40.9129 192.167C40.0014 192.176 39.0946 192.262 38.2795 192.157C38.5254 191.864 40.1559 192.131 38.9899 191.695C39.5729 191.688 40.1567 191.681 40.7353 191.672C40.3676 191.853 40.8622 191.988 40.9106 192.166C40.9114 192.166 40.9121 192.166 40.9129 192.167ZM4.83399 129.094C4.48625 130.883 4.63505 131.222 4.87598 133.024C4.59285 133.278 4.1186 131.129 4.0142 129.783C4.2874 129.555 4.56079 129.326 4.83399 129.094ZM73.7494 4.64051C74.179 4.27963 77.3481 4.23257 78.9227 4.33926C78.7353 4.39278 78.5471 4.44702 78.3596 4.50136C76.8249 4.54772 75.2841 4.59415 73.7494 4.64051ZM123.159 190.832C122.955 190.909 122.762 190.978 122.578 191.042C122.779 190.961 122.973 190.888 123.159 190.832ZM133.646 100.654C133.986 101.403 134.1 99.1753 133.967 101.88C133.967 101.88 133.968 101.88 133.968 101.88C133.88 103.669 133.857 104.064 133.83 105.722C133.393 105.125 133.237 101.763 133.147 106.397C133.146 106.458 133.406 106.337 133.371 107.077C133.36 107.306 133.146 108.037 133.084 109.15C133.064 109.509 132.998 112.211 132.994 108.528C132.69 108.638 132.381 108.44 132.086 108.449C132 107.011 132.596 105.906 132.582 104.385C132.559 102.127 131.955 100.978 132.747 100.544C132.941 102.443 132.946 105.703 132.47 106.128C132.464 107.965 132.854 108.493 133.047 107.012C132.802 100.667 133.626 105.27 133.315 99.7144C133.205 99.6487 133.086 99.4202 132.983 99.4551C133.37 97.7593 133.524 100.386 133.646 100.654ZM132.804 113.921C132.571 112.825 132.337 111.732 132.103 110.641C132.482 110.641 132.823 111.243 133.036 112.97C132.959 113.286 132.881 113.606 132.804 113.921ZM132.704 21.7083C132.498 21.5504 132.309 21.1297 132.113 20.8227C132.16 20.7325 132.207 20.0877 132.253 19.2751C132.446 17.2238 131.688 14.0322 132.415 16.7383C132.481 17.0327 132.546 18.1644 132.509 19.2751C132.484 20.2749 132.511 21.2678 132.704 21.7083ZM4.52345 116.672C4.38519 117.602 4.2467 118.527 4.10844 119.453C4.02073 118.028 3.93072 116.603 3.84136 115.179C4.06867 115.678 4.29614 116.173 4.52345 116.672ZM92.6506 192.874C92.258 192.866 93.5621 192.582 92.015 192.627C93.1683 192.446 94.2482 192.292 95.3751 192.122C95.7128 192.256 96.0539 192.389 96.3916 192.524C96.6546 192.437 96.9229 192.352 97.186 192.266C97.0282 192.461 96.8876 192.652 96.721 192.851C94.8224 192.432 94.387 192.907 92.6506 192.874ZM36.1953 193.638C35.8538 193.213 38.6031 192.961 35.8985 192.893C36.4115 192.614 37.2364 192.467 38.8193 192.442C39.0734 192.549 39.327 192.655 39.581 192.762C39.6161 192.476 40.0234 192.37 40.9129 192.167C40.9137 192.167 40.9145 192.167 40.9152 192.168C43.3217 192.147 43.1779 192.242 43.7566 192.712C41.209 192.447 41.1328 192.875 39.3964 193.13C38.2039 193.306 36.6468 193.226 36.1953 193.638ZM132.709 30.1179C132.351 28.3164 132.016 29.933 132.397 26.7367C132.488 26.9428 132.579 27.1499 132.67 27.356C132.684 28.2766 132.697 29.1972 132.709 30.1179ZM27.3044 192.182C27.5104 192.84 29.2066 193.351 29.4961 192.282C27.8431 192.064 28.6504 192.67 27.3044 192.182ZM119.099 193.308C118.272 193.389 117.694 193.339 117.324 193.256C116.464 193.059 116.689 192.706 117.324 192.433C117.462 192.37 117.619 192.31 117.787 192.254C117.979 192.383 118.176 192.509 118.376 192.63C118.906 192.533 119.428 192.408 119.939 192.258C119.678 192.615 119.4 192.966 119.099 193.308ZM3.69439 154.35C4.16384 156.779 3.95547 151.728 4.24857 153.425C4.48285 154.78 4.00983 156.565 3.71344 155.89C3.70516 155.421 3.69936 154.899 3.69439 154.355C3.69439 154.353 3.69439 154.352 3.69439 154.35ZM3.82866 168.407C4.33023 168.009 4.18403 168.583 4.09379 166.664C4.06812 166.116 4.2565 161.761 3.84087 163.589C3.84087 165.146 3.83363 166.79 3.82866 168.407ZM132.719 163.902C132.937 163.872 133.417 167.226 133.297 167.657C133.297 167.657 133.298 167.657 133.298 167.657C132.971 168.819 132.925 165.281 132.476 166.815C132.871 163.417 131.916 162.401 133.174 162.638C133.229 164.639 132.97 163.692 132.719 163.902ZM32.1387 3.61224C32.1371 3.61224 32.1356 3.61224 32.134 3.61224C32.3592 3.62251 34.215 3.94308 33.9893 4.05411C31.7577 3.95891 32.1554 3.7479 30.0778 4.09464C29.9639 3.98296 29.8663 3.87464 29.7437 3.76214C30.568 3.6959 31.0249 3.56174 32.1387 3.61224ZM132.013 13.3866C132.384 14.1197 132.576 15.6063 132.734 16.4995C131.395 13.8713 130.422 10.6125 132.013 13.3866ZM4.05033 43.8252C4.05066 43.8275 4.05098 43.8299 4.05131 43.8322C4.05082 43.8315 4.05034 43.8306 4.04984 43.8299C4.05001 43.8283 4.05017 43.8268 4.05033 43.8252ZM132.599 76.715C132.658 76.6092 132.71 76.5495 132.755 76.528C132.759 76.528 132.763 76.528 132.767 76.528C132.712 76.5851 132.656 76.646 132.599 76.715ZM132.653 156.932C132.958 155.535 133.442 160.189 133.326 161.694C133.187 161.588 133.061 161.572 132.902 161.327C133.262 160.112 132.602 157.164 132.653 156.932ZM56.6945 192.716C60.3734 192.725 55.5857 193.927 55.3883 192.968C55.3957 192.949 56.5995 192.718 56.6945 192.716ZM130.569 185.245C130.371 186.198 131.544 184.75 129.742 187.13C129.56 187.208 129.378 187.28 129.196 187.349C129.711 186.684 130.17 185.979 130.569 185.245ZM80.7945 194.295C85.4247 194.093 89.853 193.735 86.8371 192.731C86.4866 192.763 86.1313 192.794 85.7809 192.826C85.7283 193.316 84.4352 193.049 82.5423 193.033C82.2725 193.227 81.2228 193.272 81.0259 193.438C80.645 193.757 81.8511 193.982 80.7945 194.295ZM3.10067 68.3996C3.1843 68.4741 3.26836 68.547 3.35115 68.6215C3.44553 69.3538 3.53946 70.0881 3.63385 70.8203C3.47337 70.702 3.31291 70.5834 3.15243 70.4651C3.13505 69.777 3.11756 69.0923 3.10019 68.4042C3.10035 68.4027 3.10051 68.4011 3.10067 68.3996ZM133.838 118.433C132.917 118.013 133.087 119.482 133.552 122.464C133.647 121.122 133.742 119.775 133.838 118.433ZM7.28666 188.775C7.40643 188.522 7.53049 188.273 7.65502 188.022C6.41573 187.026 6.36377 187.386 6.60991 188.229C6.83274 188.419 7.05604 188.598 7.28666 188.775ZM2.56506 166.676C2.5105 167.333 2.72163 166.997 2.71739 167.066C2.60645 168.728 2.5096 168.962 2.66857 171.001C2.72403 171.251 2.78234 171.497 2.83946 171.746C3.38738 170.804 3.08875 170.119 3.41072 168.125C3.22277 168.484 3.03457 168.842 2.8458 169.202C2.88553 168.093 2.92472 166.988 2.96445 165.879C2.90649 165.748 2.84907 165.616 2.79112 165.484C2.71663 165.879 2.63292 166.286 2.56506 166.676ZM3.33845 59.9316C3.35998 58.853 3.38235 57.7693 3.40388 56.6907C3.26894 56.6512 3.13308 56.6133 2.99814 56.5739C3.11154 57.6917 3.22505 58.8138 3.33845 59.9316ZM133.418 96.2866C133.37 96.2011 133.322 96.1177 133.273 96.0436C133.333 96.0508 133.379 96.1442 133.418 96.2866ZM29.2927 2.87204C28.0695 2.77768 26.3069 2.83964 24.9652 2.8198C25.0707 3.15834 28.4808 3.06476 29.6782 3.26997C29.8706 3.20923 29.8097 2.91176 29.2927 2.87204ZM114.69 193.375C114.383 193.543 114.076 193.712 113.774 193.88C113.033 193.862 112.29 193.843 111.545 193.825C111.523 193.963 111.501 194.102 111.479 194.241C114.763 194.061 114.006 194.46 115.631 194.853C115.316 194.36 115.005 193.868 114.69 193.375ZM2.46155 25.6112C2.5551 27.9833 2.72984 28.8247 3.14462 27.4875C3.04944 26.6503 2.95417 25.8081 2.85899 24.9709C2.72655 25.1857 2.59398 25.4007 2.46155 25.6112ZM133.731 53.0846C133.576 51.0996 134.132 51.0666 133.821 49.1264C133.719 50.1653 133.615 51.2042 133.512 52.2387C133.585 52.5183 133.658 52.805 133.731 53.0846ZM135.259 150.443C135.453 149.605 134.532 148.04 135.212 145.685C135.009 145.124 134.815 144.773 134.617 144.29C134.833 144.01 135.052 143.691 135.266 143.423C135.266 143.422 135.266 143.42 135.266 143.419C135.193 141.283 134.922 142.668 134.693 142.62C134.598 142.597 134.757 141.012 134.55 141.507C134.195 142.362 134.399 145.557 133.966 145.566C134.107 144.444 133.989 142.252 133.7 142.9C133.383 143.61 133.915 145.676 133.652 146.992C134.344 145.106 134.13 149 133.598 149.443C134.006 151.727 134.173 149.627 134.154 147.286C134.561 148.715 134.341 146.611 134.68 146.265C134.884 147.739 134.714 152.797 135.259 150.443ZM61.5103 194.46C63.0893 194.434 65.5559 194.667 66.6369 194.323C67.2665 194.123 64.794 193.968 66.499 193.653C64.9607 193.684 64.6097 193.807 64.8727 194.083C64.5221 194.116 64.1671 194.148 63.8166 194.18C63.6544 194.126 63.488 194.073 63.3259 194.02C63.1417 194.133 62.9565 194.245 62.7768 194.359C62.4044 194.337 62.0276 194.314 61.6552 194.291C61.6114 194.348 61.5368 194.398 61.5103 194.46ZM119.313 3.00473C119.758 3.05529 120.2 3.12388 120.639 3.20986C120.604 3.13414 120.56 3.05397 120.517 2.97528C120.487 2.91389 120.456 2.85258 120.426 2.79134C120.673 3.00511 122.65 3.84522 123.544 4.03131C124.005 4.12459 123.186 3.31667 125.014 4.11116C123.716 3.47564 122.431 3.07177 121.066 2.79291C121.212 2.71312 121.356 2.63287 121.506 2.55681C121.505 2.55645 121.504 2.55609 121.503 2.55573C121.052 2.41749 120.588 2.29541 120.123 2.1947C119.838 2.45793 119.573 2.72854 119.313 3.00473ZM7.90373 190.089C9.25783 190.98 9.76708 191.129 9.38103 190.427C9.37985 190.426 9.37867 190.425 9.37749 190.424C8.82665 190.201 8.28095 189.944 7.7446 189.654C7.7943 189.798 7.84587 189.942 7.90373 190.089ZM134.571 83.4071C133.244 80.2282 134.058 87.3872 134.51 86.0241C134.531 85.9627 134.425 83.7052 134.571 83.4071ZM119.742 193.637C118.944 193.764 118.137 193.831 117.324 193.84C117.232 193.842 117.139 193.843 117.047 193.844C117.139 193.918 117.231 193.991 117.324 194.065C117.441 194.154 117.561 194.242 117.68 194.329C118.388 194.141 119.082 193.909 119.742 193.637ZM1.85904 35.9391C1.49474 36.8575 1.36275 39.2149 1.75894 40.367C1.80531 39.7619 1.85173 39.1565 1.8981 38.5514C1.94361 39.6954 1.99372 40.8265 2.03676 41.9793C2.54429 42.0406 2.24985 40.7122 2.38977 38.7126C2.41234 38.4031 3.04232 36.4239 2.5675 35.7405C2.4699 35.603 2.40354 37.7084 2.11977 36.2452C2.09743 36.885 2.10239 37.4372 2.08998 38.042C1.9691 38.0859 1.84809 38.1293 1.72721 38.1776C1.77097 37.4297 1.81527 36.6869 1.85904 35.9391ZM70.7026 194.421C72.8714 194.449 73.1392 194.246 73.5907 193.888C72.5822 193.928 71.5733 193.968 70.5648 194.009C70.6129 194.146 70.6545 194.283 70.7026 194.421ZM1.74283 55.3238C1.68421 56.5111 1.97593 56.0026 2.03139 56.4804C2.24 58.2867 2.0315 59.5189 2.16224 61.3032C2.10594 61.1848 2.05332 61.076 1.99868 60.9621C1.99868 60.9636 1.99868 60.9652 1.99868 60.9667C1.75281 69.4159 2.4144 64.9779 2.30677 59.9223C2.41523 59.8039 2.52383 59.6901 2.63146 59.5718C2.44187 57.3093 2.25944 55.2229 1.74283 55.3238ZM134.617 111.65C134.685 111.553 135.116 112.373 134.914 110.834C134.284 109.616 134.597 111.614 134.355 112.115C134.294 111.698 134.235 111.272 134.175 110.86C133.997 113.351 134.147 113.714 134.607 112.807C134.638 112.742 134.549 111.747 134.617 111.65ZM134.927 95.2818C133.999 94.9398 134.417 98.083 134.705 97.969C134.716 97.5351 134.559 97.1978 134.629 96.7376C134.698 96.2728 134.915 96.154 134.927 95.2818ZM132.545 185.663C132.601 185.587 133.409 184.853 133.085 184.808C131.95 185.632 130.935 187.838 131.368 187.65C131.849 186.97 132.061 186.449 132.546 185.664C132.546 185.664 132.545 185.664 132.545 185.663ZM1.6403 21.6342C1.6144 21.678 1.45761 23.9861 1.60319 24.2839C1.76709 24.5294 1.94275 24.6513 2.11244 24.8354C1.95513 23.5638 2.07497 20.9899 1.6403 21.6389C1.6403 21.6373 1.6403 21.6358 1.6403 21.6342Z" fill="#28C7B3"/>
</svg>
