<svg width="157" height="62" viewBox="0 0 157 62" fill="none" xmlns="http://www.w3.org/2000/svg">
<path d="M78.4454 0.865001C77.6912 0.568884 80.1233 0.593957 78.4748 0.196755C78.8062 0.130953 79.1384 0.0646991 79.475 -3.66887e-06C79.5774 0.191661 79.6815 0.382735 79.7834 0.574541C79.3346 0.670532 78.8898 0.767584 78.4455 0.865974C78.4454 0.865652 78.4454 0.865325 78.4454 0.865001ZM78.0607 3.40866C78.4149 2.80424 79.6986 2.5394 78.2518 2.14017C78.1578 2.34474 78.0614 2.54957 77.9679 2.75427C77.468 2.64795 76.9631 2.54376 76.4594 2.4419C76.2908 2.5333 76.1226 2.62496 75.954 2.71594C75.6962 2.401 75.439 2.0854 75.1787 1.77057C75.1785 1.77037 75.1783 1.77018 75.1782 1.76998C75.1783 1.77001 75.1785 1.77003 75.1786 1.77005C75.3837 1.79867 75.5914 1.82817 75.7959 1.8574C76.5577 1.50374 77.2534 1.3602 78.3156 1.21332C78.2148 1.1417 78.1136 1.07088 78.0126 0.999409C78.5684 1.08616 79.1152 1.17605 79.6737 1.2666C79.2098 1.43973 78.7044 1.63328 78.282 1.79674C79.0172 2.2642 80.2231 1.86607 80.8537 1.70632C81.7122 1.48822 81.5344 1.7558 82.1703 1.60315C82.2717 1.57927 82.2693 1.38054 82.4721 1.36284C83.4912 1.27268 85.5126 1.25772 84.3672 1.79082C82.6564 1.83772 81.2706 2.31202 79.5925 2.31604C80.0762 2.81316 79.2161 3.06473 78.0607 3.40866ZM109.088 1.20334C108.562 1.42844 107.526 1.2606 106.82 1.04353C106.819 1.04349 106.819 1.04344 106.818 1.0434C106.663 0.995458 106.323 0.632091 106.837 0.672836C107.675 0.741454 108.042 1.30903 108.5 0.967432C108.69 1.04815 108.89 1.12223 109.088 1.20334ZM110.908 1.30106C111.407 1.4739 111.145 1.86332 110.514 1.70455C110.514 1.70487 110.514 1.7052 110.514 1.70552C110.25 1.63971 110.8 1.35439 109.815 1.61311C109.637 1.34419 109.456 1.09862 109.28 0.838778C109.515 0.850407 109.734 0.858748 109.982 0.873075C109.785 1.28052 110.407 1.12957 110.908 1.30106ZM85.2132 1.50833C85.2713 1.12632 84.9371 1.14738 84.3479 0.920768C84.8897 0.899769 85.4303 0.881736 85.9668 0.865122C85.7143 1.07936 85.4648 1.29316 85.2132 1.50833ZM72.5884 2.54749C72.5875 2.54758 72.5867 2.54768 72.5859 2.54777C72.4173 2.62731 72.2488 2.70727 72.0824 2.78614C71.9618 2.66451 71.8423 2.54342 71.7214 2.42197C71.1164 2.62197 70.5091 2.82493 69.9071 3.03076C69.9297 2.61173 71.0497 2.53763 71.6294 2.17876C72.5574 2.19278 73.0243 2.38192 73.1225 2.72213C72.9457 2.66391 72.768 2.60499 72.5884 2.54749ZM109.486 55.0992C109.313 55.2601 109.141 55.4203 108.966 55.5809C109.247 55.5655 109.523 55.5381 109.807 55.5292C110.392 54.8697 110.556 55.2822 111.477 55.0116C114.303 54.162 113.299 53.6365 116.176 53.9879C114.111 54.5273 115.04 54.8117 113.917 55.5487C113.581 55.3188 114.61 54.3059 113.748 54.3932C112.417 55.1014 111.098 55.7655 109.559 56.3666C109.618 56.4072 109.678 56.448 109.738 56.4886C109.983 56.3925 110.226 56.2964 110.47 56.1996C110.233 56.4082 110.001 56.6138 109.757 56.8245C110.03 56.4197 109.176 56.8197 109.206 56.4249C109.22 56.2493 109.561 55.9263 109.754 55.7131C109.133 55.7787 108.495 55.8527 107.861 55.9173C108.148 55.7117 108.434 55.5055 108.715 55.2995C108.972 55.2325 109.226 55.1668 109.481 55.0989C109.482 55.099 109.484 55.0991 109.486 55.0992ZM7.52071 24.3083C7.12961 25.1304 6.07638 26.163 5.20454 26.4241C5.95201 25.6789 6.72614 24.9768 7.52071 24.3083ZM73.2143 3.00164C73.1183 2.94593 73.0253 2.89066 72.929 2.8351C73.3061 2.66863 73.6872 2.50362 74.0657 2.33911C74.1617 2.52095 74.2592 2.7027 74.357 2.88359C73.9768 2.92215 73.5942 2.96112 73.2143 3.00164ZM98.3516 1.415C98.0653 1.42483 98.0401 1.41834 97.6828 1.38983C97.6832 1.39 97.6836 1.39016 97.684 1.39032C97.5434 1.37872 96.3526 1.26823 96.4843 1.12131C97.0774 1.11697 97.7072 1.12039 98.3086 1.12421C98.3262 1.22114 98.3295 1.31722 98.3516 1.415ZM91.3885 1.40659C91.3877 1.40629 91.3869 1.40599 91.386 1.40568C91.1689 1.38949 90.9607 1.3502 90.7411 1.34882C91.5331 1.09275 91.6775 1.50478 92.4018 1.36956C93.1266 1.2344 93.5728 0.997024 94.1944 1.55713C93.9679 1.64572 93.7245 1.7717 93.4913 1.87531C92.4595 1.66727 92.1841 1.88896 91.3614 2.13614C91.3705 1.8924 91.3793 1.65033 91.3885 1.40659ZM122.33 52.5598C122.428 52.2298 122.725 52.4204 122.748 52.4161C122.747 52.4165 122.747 52.4169 122.747 52.4174C124.312 51.6029 122.587 52.6409 124.152 52.142C123.946 52.2892 123.743 52.4386 123.537 52.5854C123.137 52.5801 122.72 52.5603 122.33 52.5598ZM151.097 13.9137C151.136 13.8394 151.172 13.7626 151.21 13.6881C152.027 14.3927 152.423 14.3215 152.882 15.1806C152.283 14.7062 151.715 14.3129 151.097 13.9145C151.097 13.9142 151.097 13.914 151.097 13.9137ZM103.333 2.1095C102.221 2.22973 101.424 2.27918 100.377 2.01221C100.376 2.01186 100.375 2.01153 100.375 2.01119C100.314 1.99483 100.611 1.82854 100.532 1.78395C100.315 1.80569 100.089 1.84147 99.869 1.8689C99.8412 1.73116 99.8147 1.59347 99.7867 1.45657C100.407 1.50418 101.025 1.55476 101.64 1.6084C101.551 1.52594 101.46 1.44418 101.37 1.36185C101.894 1.33221 102.421 1.30495 102.955 1.28011C102.764 1.49939 102.573 1.71904 102.384 1.93979C102.701 1.99586 103.018 2.05102 103.333 2.1095ZM155.113 29.9448C155.27 29.809 155.268 30.1888 155.455 29.9501C155.645 29.7082 155.677 29.1463 155.869 29.3525C155.764 29.7314 155.63 30.1499 155.498 30.5151C156.484 29.514 156.439 28.0726 156.983 28.1951C156.501 29.44 156.157 30.4307 155.718 31.6012C155.364 31.3346 155.531 30.1105 154.832 30.5888C154.931 30.3768 155.025 30.155 155.113 29.9476C155.113 29.9467 155.113 29.9457 155.113 29.9448ZM58.424 10.8883C57.769 10.9769 56.3252 11.4472 55.4578 11.3622C55.2444 11.3405 54.4051 10.6685 54.385 10.5611C54.3283 10.1964 55.1408 9.97458 54.2103 9.92487C54.5067 9.85967 54.7907 9.78621 55.0844 9.71879C54.9815 9.48727 54.8788 9.2564 54.7779 9.02534C54.4257 9.13641 54.073 9.24888 53.7222 9.36265C53.6875 9.28625 53.6528 9.20965 53.618 9.13327C54.9113 8.8576 54.0816 8.70974 54.695 8.28062C54.0447 8.26305 53.3878 8.2508 52.7384 8.23947C53.0985 8.17978 53.5234 8.10268 53.8427 8.05729C53.7982 7.63739 53.066 7.89555 52.9208 7.84778C52.0996 7.5696 55.8519 7.0066 56.0406 6.35633C55.4317 6.40763 54.7945 6.46923 54.1722 6.53009C54.3314 6.42006 54.4933 6.30966 54.6527 6.2001C56.1195 6.32939 57.6961 6.17488 59.3546 6.1415C59.4973 6.09801 59.6396 6.05431 59.7802 6.01237C59.7042 5.83342 59.6306 5.6548 59.5545 5.47592C59.7706 5.41442 59.9907 5.35278 60.2069 5.29203C59.6662 6.02208 60.5646 5.85137 61.7112 6.04359C61.1716 6.35707 60.4399 6.35049 60.5595 6.74454C62.4781 6.08706 64.8636 6.1567 66.7382 5.52806C67.204 5.37269 67.1281 4.84889 68.2646 4.74106C68.2342 4.80374 68.2418 4.9083 68.2274 4.98716C70.1449 4.47134 71.3176 4.1717 73.3824 4.19484C73.2436 4.01982 73.1065 3.84391 72.9669 3.66917C72.5445 3.81262 72.1223 3.95888 71.7041 4.10444C71.3723 3.82996 71.7904 3.63761 70.4992 3.802C69.4418 3.93907 70.089 3.9961 69.8134 4.12491C69.4412 4.30078 69.0665 4.09901 68.6676 4.29554C68.3587 4.44699 68.7426 4.6545 67.8923 4.70566C68.1846 4.3274 68.4845 3.93793 68.7819 3.55648C68.9981 3.60355 69.2133 3.65223 69.4294 3.70075C69.2325 3.81671 69.0389 3.93136 68.8427 4.04784C69.5552 3.79048 70.229 3.55087 70.9696 3.29157C70.7817 3.80198 71.5449 3.5248 71.9645 3.4177C72.619 3.25027 72.0887 3.64795 72.5174 3.54178C72.946 3.43522 73.3748 3.0114 74.1726 3.00427C73.7734 3.26438 74.369 3.39348 74.2794 3.60313C74.1894 3.8125 73.3641 3.94796 74.1855 4.07554C75.7033 3.74637 73.9552 3.17277 74.9821 2.9402C75.0931 2.9152 75.1977 2.90218 75.2958 2.89939C76.2949 2.87126 76.611 3.89021 76.2966 4.16352C76.1518 4.28952 75.7977 4.36545 75.4563 4.44567C75.1576 4.51597 74.8698 4.58939 74.7431 4.70077C75.0355 4.72965 75.2798 4.73564 75.4852 4.72436C76.5707 4.6655 76.5687 4.12284 76.8165 3.97586C77.8862 3.34375 77.2678 4.8148 78.5403 4.1874C78.539 4.45178 78.5401 4.68938 78.538 4.94303C78.7605 4.87486 78.9053 4.79793 79.1757 4.73618C78.3229 4.2963 78.9863 4.2596 79.3261 4.22967C79.8634 4.18199 79.0123 4.00387 79.149 3.92739C79.5149 3.72198 80.1391 3.74901 79.7431 3.55527C79.9207 3.6459 80.112 3.7359 80.2933 3.82582C80.9133 3.64295 82.3173 2.43554 80.918 2.76502C81.0185 2.34767 81.493 2.50785 81.8544 2.54358C82.2158 2.57928 82.1904 2.32054 82.5074 2.34615C83.7662 2.45153 82.9808 2.95145 82.8093 3.3127C84.4368 2.96339 82.8156 2.90603 85.1886 2.59991C85.4032 2.30275 84.2816 2.06537 85.1913 1.84755C85.3901 2.33068 86.0822 2.64318 87.4 2.74367C87.523 2.62422 87.6457 2.5039 87.769 2.38469C88.5112 2.80761 88.1627 3.29448 89.4675 2.67795C88.7953 3.74453 89.2629 3.05789 90.457 3.44056C90.6989 3.51784 90.1538 3.7517 90.491 3.84979C90.6447 3.89398 91.0017 3.71961 91.3821 3.8344C91.5672 3.89088 92.4276 4.26852 93.0084 4.06664C92.5666 3.5724 93.6762 3.12082 92.7072 2.72471C94.4864 2.78987 95.7081 2.53854 93.7444 3.25186C94.1968 3.39655 94.6382 3.54222 95.0948 3.68906C95.4088 3.5658 95.7253 3.44421 96.0413 3.32329C96.0906 3.73743 96.0461 3.85062 97.2751 3.77757C96.7423 3.8747 96.2103 3.97565 95.6726 4.07804C95.655 4.16171 95.5807 4.24912 95.5994 4.33005C96.2597 4.16358 98.1003 4.09693 98.545 3.99248C98.9967 3.88585 98.1288 3.84915 98.2598 3.74345C99.3446 2.87075 99.2596 3.52054 100.035 3.38027C100.492 3.29779 99.406 3.18448 99.65 3.15009C100.557 3.0233 100.965 3.4998 101.757 3.52478C101.482 3.25221 101.208 2.97616 100.936 2.70244C101.77 2.73317 102.71 2.76139 103.499 2.70328C103.807 2.68066 103.582 2.47513 103.632 2.46364C103.885 2.40371 104.9 2.3361 105.006 2.34049C105.806 2.37393 105.821 2.64864 106.608 2.70358C106.298 2.71069 106.005 2.71719 105.7 2.72532C105.544 3.16225 105.386 3.59923 105.232 4.03737C105.984 4.10298 106.762 4.17423 107.52 4.25035C106.971 4.07024 106.416 3.89324 105.858 3.7182C106.758 3.40238 107.656 3.09241 108.552 2.78915C108.991 3.0376 109.433 3.28808 109.877 3.54075C111.124 3.57409 110.945 2.66608 111.469 3.4933C111.838 3.45699 112.205 3.4219 112.572 3.38876C112.511 3.49549 112.45 3.60253 112.389 3.70932C112.832 3.67918 113.287 3.65247 113.734 3.62567C113.31 3.18722 112.881 2.72972 112.457 2.30717C113.338 2.2986 113.329 2.63691 113.451 2.73203C113.776 2.98509 114.489 2.75475 114.741 2.98733C114.826 3.06645 113.954 3.20101 114.221 3.48399C114.278 3.5387 115.302 4.58436 116.045 4.45166C116.051 4.28146 116.018 4.0683 116.008 3.88148C117.006 3.88994 117.39 4.83221 117.232 5.06256C117.769 4.95206 118.516 5.03434 118.656 4.77917C118.915 4.80663 119.179 4.83594 119.446 4.86606C119.082 5.4828 120.198 5.51654 120.35 4.96518C119.9 4.88576 119.445 4.80734 118.99 4.73197C119.423 4.0907 118.106 3.47246 120.895 4.52446C121.388 4.96375 119.929 4.333 120.336 4.66708C121.093 4.93622 121.815 4.91331 122.52 5.28368C123.384 5.74813 122.219 5.85174 124.395 5.82464C119.884 4.04337 125.142 5.22087 127.417 5.39744C127.807 6.49486 129.572 7.17232 132.154 7.54311C131.966 7.20692 131.134 7.14107 130.693 6.94095C130.265 6.74351 130.792 6.7016 130.258 6.44092C129.728 6.17988 128.532 5.73119 127.986 5.41781C128.519 5.36323 131.049 5.56646 129.335 5.62921C130.476 6.1717 130.965 6.57534 132.429 7.01113C132.985 6.71483 132.993 6.42835 134.461 6.83369C133.443 7.16397 134.96 8.03639 134.423 8.52621C133.46 8.09539 134.189 7.68026 133.675 7.23487C133.612 7.18608 132.649 7.07889 132.429 7.01113C133.24 7.7864 133.491 8.06966 132.755 8.5331C133.42 8.65658 133.83 8.86053 133.972 8.58158C134.074 8.74982 134.176 8.91844 134.273 9.08613C134.488 9.14622 134.684 9.19186 134.907 9.26252C134.733 8.72545 135.249 9.17896 135.735 9.11316C136.236 9.05299 135.766 8.51266 136.962 8.90043C136.601 8.66593 136.259 8.45753 135.901 8.23708C136.72 8.36976 137.534 8.5147 138.325 8.66821C137.899 8.21308 136.841 7.42039 136.984 7.07727C137.31 7.32719 138.612 7.51199 138.745 7.55144C139.28 7.7016 138.917 7.82197 138.954 7.84111C139.747 8.2472 140.435 8.43033 140.605 8.88026C141.25 8.96311 141.703 9.2484 142.331 9.51108C142.679 9.65759 142.717 9.38939 142.898 9.52435C144.103 10.4514 142.702 10.1184 145.535 10.8334C145.297 10.502 145.093 10.1888 144.859 9.867C145.185 9.95248 145.488 10.0295 145.827 10.1299C146.012 10.2646 146.192 10.3993 146.372 10.5353C146.178 10.8794 145.983 11.2239 145.79 11.5681C145.988 11.7008 146.184 11.8342 146.375 11.9685C146.009 11.804 145.635 11.6425 145.254 11.4849C145.188 11.5288 145.125 11.5739 145.06 11.618C145.547 11.9962 146.01 12.3782 146.451 12.7641C146.531 12.6514 146.61 12.5378 146.69 12.4252C147.773 13.3039 147.682 13.3832 148.973 13.821C149.772 14.3965 150.76 14.4642 151.374 14.6795C151.484 14.8775 151.589 15.0763 151.691 15.2753C151.863 15.2788 152.05 15.2986 152.229 15.3131C152.321 15.6218 152.405 15.9309 152.475 16.2339C152.834 16.0943 152.999 16.0728 152.307 15.2154C152.904 15.1357 154.105 16.7191 154.425 17.4604C154.682 18.0106 153.992 17.6937 154 17.7845C154.022 18.0604 154.674 18.8022 154.747 18.9917C155.087 19.7802 155.369 20.3281 155.568 21.0809C155.609 21.2311 155.517 21.7043 155.519 21.7384C155.569 22.0118 155.618 22.6871 155.626 22.7623C155.71 23.2638 155.753 23.6318 155.794 23.8997C155.956 25.7282 156.748 22.8271 156.544 26.1899C156.691 26.0885 156.835 25.9925 156.979 25.8857C156.964 26.1881 156.937 26.4938 156.9 26.796C156.725 27.1563 156.606 26.6736 156.63 27.4323C156.476 27.351 156.322 27.2713 156.168 27.1915C156.197 27.5134 156.215 27.83 156.215 28.1705C155.549 28.5368 154.767 30.1022 154.185 29.6919C154.003 29.5592 154.209 28.3966 153.756 28.8699C153.526 29.3016 153.907 29.1036 153.841 29.2957C153.335 30.6447 152.973 30.3973 152.785 30.943C152.881 31.107 152.974 31.2792 153.065 31.4508C152.903 31.6188 152.736 31.7856 152.565 31.9521C152.627 32.0596 152.687 32.1698 152.748 32.2788C152.881 32.0989 153.025 31.8955 153.139 31.73C153.388 32.2264 151.939 34.4413 152.26 33.4168C152.396 33.0034 152.861 32.4607 152.184 32.5263C151.853 33.1067 151.405 33.7792 150.991 34.354C150.894 34.2977 150.798 34.2398 150.701 34.1831C150.103 34.9478 151.021 34.594 151.198 34.7489C151.051 34.9219 150.899 35.0959 150.745 35.2685C150.6 35.2657 150.452 35.259 150.311 35.2563C150.426 35.3798 150.631 35.7454 150.048 36.1158C149.67 36.35 149.862 35.57 149.31 36.1828C149.533 36.3332 149.988 36.3562 149.351 37.0638C149.098 36.9207 148.836 36.8159 148.591 36.6458C147.936 37.5845 147.244 37.6099 146.404 38.6556C145.848 39.3357 145.31 40.5739 144.243 40.0091C143.713 40.3382 144.024 40.4464 143.904 40.6006C143.348 41.3159 142.53 41.2321 142.378 41.2933C141.393 41.6871 141.113 42.0575 140.269 42.2748C140.408 42.423 140.523 42.5723 140.652 42.7204C141.167 42.0732 141.482 41.9043 142.444 41.3751C142.162 41.6008 141.862 41.8346 141.581 42.0518C141.714 42.1589 141.846 42.2661 141.978 42.3732C144.476 40.041 144.39 41.2998 142.08 42.9961C141.721 42.8667 141.355 42.7404 140.998 42.6051C139.815 43.8203 138.981 43.8386 137.295 44.6145C137.103 44.7031 136.484 45.2109 136.181 45.3701C136.186 45.3686 136.192 45.3671 136.197 45.3656C136.133 45.7113 136.447 45.6989 136.591 45.9077C136.439 46.0188 136.286 46.1297 136.132 46.2406C135.672 46.2524 135.734 46.05 135.014 46.4458C135.192 46.5717 135.376 46.695 135.559 46.8179C134.753 47.2126 134.147 47.2666 133.417 47.6961C133.516 47.5722 133.612 47.4488 133.71 47.3249C131.975 47.9075 132.824 46.2996 131.82 47.3534C131.702 47.2982 131.586 47.2411 131.469 47.1856C131.964 46.9444 132.467 46.6957 132.969 46.4414C132.922 46.3109 132.877 46.1805 132.828 46.0509C132.297 46.3374 131.768 46.6187 131.246 46.8904C131.606 46.6328 131.953 46.3784 132.322 46.1115C131.654 46.3386 131.022 46.5419 130.358 46.7521C131.23 46.9327 130.382 47.3621 130.742 47.7555C129.426 47.8563 128.375 47.6956 126.714 48.7149C126.382 48.9165 126.705 49.1729 125.561 49.1441C126.001 49.5789 124.833 50.289 125.175 50.7295C125.52 50.5766 125.879 50.427 126.206 50.2711C125.755 50.242 125.518 49.789 126.045 49.4308C126.704 48.9801 127.942 48.8735 127.685 48.368C127.991 48.2764 128.27 48.1821 128.562 48.0887C128.497 48.2654 128.435 48.4421 128.371 48.6181C129.103 48.0899 129.626 47.9498 130.163 48.1082C129.21 48.5934 128.297 49.046 127.329 49.506C127.484 49.472 127.64 49.4372 127.794 49.4021C127.179 50.0265 128.063 50.0545 126.702 50.6549C126.652 50.4976 126.601 50.3408 126.551 50.1827C126.208 50.7854 124.801 51.2955 125.422 51.6082C124.943 51.6167 124.822 51.5548 124.671 51.899C123.42 51.9362 122.554 51.7136 122.759 51.0295C122.378 51.2598 121.992 51.4894 121.606 51.7172C121.898 51.7871 122.19 51.8556 122.482 51.9242C121.756 52.1607 121.005 52.3988 120.29 52.6197C120.075 52.1966 121.636 52.0297 121.083 51.7687C120.969 51.7176 120.64 52.0158 120.524 52.0034C119.296 51.8612 121.089 51.6699 120.65 51.3976C119.02 51.7966 120.109 50.7611 118.055 51.9846C117.956 51.873 117.852 51.7602 117.757 51.6479C116.978 51.8775 117.142 52.148 116.496 52.401C116.093 52.5586 115.421 52.1938 115.061 52.6786C114.996 52.7666 115.962 53.1783 114.308 53.6164C113.045 53.9451 113.444 53.3508 112.719 53.3782C111.997 53.4056 110.569 54.4442 109.935 53.8489C110.319 53.8516 110.779 53.7873 111.206 53.7576C111.334 53.5771 111.457 53.3991 111.581 53.2198C110.703 53.6423 109.727 53.6667 109.191 54.1497C107.845 53.9509 106.587 54.7387 107.092 55.2224C107.474 55.0454 106.977 54.9006 107.574 54.9261C107.664 55.0451 107.757 55.1627 107.846 55.2817C106.885 55.4948 106.23 55.6481 106.568 55.1425C106.419 55.1671 106.27 55.1913 106.12 55.2156C106.161 55.5154 106.205 55.8156 106.246 56.1155C106.076 56.1893 105.905 56.2628 105.734 56.3363C105.522 56.3167 105.308 56.296 105.093 56.2755C105.258 55.749 105.715 55.6339 104.135 55.7093C104.166 55.8713 104.195 56.033 104.225 56.195C102.913 56.2646 102.806 55.8814 101.21 56.223C102.322 55.4136 103.191 56.2624 102.949 55.1412C103.269 55.1501 103.587 55.1596 103.91 55.1664C103.921 54.9936 103.932 54.8207 103.941 54.6484C102.346 55.0926 99.8028 56.7184 98.5716 56.2081C98.4547 56.3203 98.3349 56.4211 98.2165 56.5401C97.0552 56.3105 96.7495 57.3647 95.5592 56.9971C95.4354 56.9574 95.5168 56.0096 94.0947 56.2822C94.15 56.3947 94.2018 56.5909 94.2558 56.7354C93.9333 56.7146 93.6116 56.6895 93.2903 56.6653C93.2521 56.7839 93.211 56.9028 93.1726 57.0222C93.712 56.9787 94.2482 56.9343 94.784 56.8872C94.3511 56.9992 93.9137 57.1105 93.4775 57.2201C94.0836 57.3048 94.3437 57.2629 94.0437 57.6071C93.5472 57.7068 93.0399 57.8074 92.5478 57.9026C92.5082 57.9842 92.469 58.0666 92.4293 58.1482C92.7051 58.3294 92.9813 58.5053 93.2633 58.6881C91.9295 58.7186 90.7947 58.8787 89.7225 58.5923C89.5402 58.5437 90.1068 58.1718 88.9732 58.5956C88.934 58.4465 88.8857 58.3278 88.846 58.1904C87.4881 58.8115 86.9983 58.7475 85.4663 58.6274C86.47 58.7931 85.5836 58.7149 85.3553 58.8989C85.1991 59.0257 85.8578 58.9282 85.7969 59.0482C85.7367 59.1678 84.9302 59.7186 85.6732 59.6811C87.3617 58.542 87.9727 59.5721 90.2239 58.8023C89.8863 58.9712 89.5447 59.1401 89.2043 59.3077C89.3836 59.3634 89.5443 59.4141 89.738 59.4725C88.4207 59.4779 89.0688 59.5036 88.5599 59.7173C88.0528 59.9305 87.1062 60.1779 86.4624 60.2988C86.2597 60.3368 86.4492 60.1054 85.9859 60.1445C85.6692 60.1714 84.8504 60.5786 84.6121 60.2441C84.4568 60.0263 85.7431 59.2245 83.858 59.4488C83.4763 59.2619 84.3891 59.2275 84.4049 59.1973C84.5364 58.9069 83.3568 58.839 82.8422 59.1054C82.8005 59.1282 83.249 59.2923 82.7963 59.4269C82.1409 59.6221 81.6369 59.632 81.1748 59.5521C80.8789 59.501 80.6006 59.4129 80.3101 59.3123C80.2725 59.7054 79.3886 60.2598 78.2267 60.2205C78.1779 60.3362 78.1319 60.4526 78.0831 60.5691C78.2563 60.4947 78.4295 60.4209 78.6028 60.3461C78.8038 60.3975 79.0151 60.4287 79.2134 60.4923C78.0637 60.6955 77.9481 61.2398 77.4092 61.4829C75.5428 62.3088 76.5932 60.8044 76.9166 60.5334C77.1744 60.6106 77.4225 60.6998 77.6754 60.7816C77.6365 60.6495 77.5972 60.5164 77.5607 60.3833C74.707 60.6264 77.0527 59.549 75.5888 59.4155C75.2685 60.1064 74.2161 60.2526 72.8379 59.9203C72.6878 59.9334 72.5372 59.9439 72.3874 59.9575C72.3685 60.0557 72.3782 60.2033 72.3413 60.2696C70.7134 60.4828 70.3736 59.4718 70.2151 59.3843C69.516 58.9911 69.0137 59.6096 68.8101 59.6241C67.9589 59.6835 67.7017 59.4298 66.9008 59.5736C66.0401 59.7272 66.6387 59.9083 66.3816 60.0988C66.1743 60.2502 65.4964 60.2975 65.2109 60.4546C65.3211 60.3294 65.4438 60.206 65.5533 60.0802C64.6396 59.941 63.8976 59.7972 62.8781 59.7744C61.7472 60.6872 60.7344 59.1858 61.1478 60.4048C62.1329 60.4798 62.66 60.6097 63.189 60.9116C62.5499 60.9632 61.9246 61.0105 61.2753 61.0561C61.0864 60.9236 60.9523 60.794 60.7302 60.6588C60.2521 60.9473 59.1457 60.826 58.7145 60.9069C56.6806 61.2839 57.2839 61.7764 55.4463 60.9259C56.7844 60.8727 56.7873 60.4762 58.1228 60.5431C57.8356 60.2581 57.159 60.3094 57.6002 59.9746C56.3135 60.0432 56.7257 60.3501 56.2213 60.6114C55.786 60.8364 54.9221 60.8295 54.9638 61.1318C54.8795 60.964 54.8153 60.8019 54.7318 60.6342C53.9009 60.6147 53.0589 60.5876 52.2319 60.5567C52.5919 60.3977 52.9519 60.2374 53.3121 60.0771C53.0464 60.0028 52.7812 59.9283 52.5174 59.8529C50.471 60.325 47.0047 59.1108 47.4849 60.4945C46.4872 60.4696 46.3764 60.2897 45.861 59.994C45.7942 60.0918 45.7303 60.1724 45.6625 60.2817C45.0368 60.1247 44.524 60.468 43.9748 60.3186C43.4169 60.1688 43.313 59.7926 43.1731 60.3941C42.8244 60.1849 42.4777 60.0045 42.1357 59.8058C41.9053 59.9221 41.6753 60.0363 41.4472 60.151C41.1162 60.0427 40.7943 59.9344 40.4552 59.8228C40.2372 60.0934 38.9105 59.8101 38.3043 59.928C37.7891 59.5429 37.9433 58.5679 36.6063 58.5593C36.6053 58.8075 36.6042 59.0549 36.6036 59.3031C36.3096 59.2096 36.0167 59.1153 35.7241 59.0198C35.718 58.9378 35.7143 58.8561 35.7083 58.7741C35.8566 58.8214 36.0033 58.868 36.1524 58.9157C36.0394 58.762 35.9297 58.6092 35.8203 58.4556C35.3366 58.587 34.8597 58.7169 34.3702 58.8423C34.9605 59.091 35.5475 59.3346 36.1485 59.5757C35.3396 59.6404 34.8412 59.3813 34.1284 59.4705C33.5875 59.0388 33.8407 58.8817 34.1393 58.5573C33.9146 58.5526 33.6882 58.546 33.4648 58.5404C33.6707 58.2003 33.3337 57.926 34.6087 58.1619C34.5377 58.0442 34.4631 57.9308 34.395 57.8092C34.1828 57.7917 34.0616 57.682 33.8267 57.6841C33.1872 57.6903 32.6041 58.2438 32.6064 58.4747C32.6084 58.5961 33.2604 58.4779 33.2079 58.639C33.0801 59.0324 31.6902 58.6099 33.6697 59.3625C32.9438 59.506 32.8231 59.2861 32.0947 59.0802C32.1286 59.2249 32.1613 59.3685 32.1935 59.5129C31.8576 59.3894 31.5319 59.2664 31.1935 59.1392C31.8008 58.5413 29.3009 57.7982 31.7078 57.6297C31.0372 57.4738 30.3684 57.3117 29.7148 57.1444C29.8654 57.1016 30.016 57.0593 30.1668 57.0161C30.4592 57.1134 30.7522 57.2089 31.0491 57.3037C30.7163 57.106 30.3866 56.9079 30.0616 56.7081C29.1988 56.6996 28.8386 56.8773 28.3786 57.0947C29.3109 57.5261 29.0462 57.1539 29.8143 57.2493C29.7488 57.4361 29.7479 57.62 29.6405 57.8084C29.3339 57.3338 27.9945 57.3488 27.6878 57.2981C26.7707 57.152 27.5665 56.9241 26.969 56.7777C26.3766 56.6316 25.6151 56.6897 25.2162 56.1795C25.1703 56.3967 25.1532 56.6292 25.1391 56.834C24.1802 56.664 24.4378 56.4569 24.3492 56.3993C22.99 55.4583 22.0051 55.6702 20.2654 55.1746C20.4645 55.3112 20.6814 55.4451 20.8761 55.5736C19.4083 55.5993 20.3605 55.7616 21.4402 56.2514C20.402 55.8876 19.6334 56.0572 18.8451 55.9155C18.0686 55.7809 16.8139 55.0981 16.4211 54.7687C17.5775 54.942 18.6748 55.5148 19.9077 55.8408C19.8393 55.581 19.7657 55.3555 19.7039 55.0733C18.8263 55.281 18.5184 54.8339 18.3078 54.6924C17.6629 54.2644 17.5457 54.6526 17.2808 54.0857C17.2444 54.2329 17.212 54.3561 17.1794 54.4942C15.7848 53.9047 14.3789 53.0057 13.2368 53.0775C13.3077 52.7109 13.395 52.3665 13.4613 51.9889C12.7592 51.9538 12.4292 51.4736 11.9086 51.2695C11.4034 51.0704 11.4424 51.4262 10.8364 51.2164C10.7244 51.1769 10.6066 50.8994 10.2965 50.8731C9.97891 50.8497 8.49831 51.112 8.87732 50.3011C8.43831 50.0086 8.00937 49.6717 7.59319 49.3446C8.03657 49.6117 8.51419 49.8845 8.95649 50.1154C8.71668 49.7024 8.46607 49.2712 8.24317 48.8448C8.0866 48.9664 7.92709 49.0899 7.77225 49.2092C6.69846 48.6989 6.21286 47.8915 5.31668 47.1091C5.16864 46.9746 5.22638 47.582 4.67854 46.871C4.14133 46.1332 4.25584 45.2391 3.25696 44.149C3.21135 44.1002 2.50888 43.9818 2.6025 43.3245C2.62498 43.1811 2.96185 43.5743 2.93798 43.2803C2.89643 42.9919 2.54644 41.8618 2.78724 41.6945C2.70195 41.7349 2.63249 41.8337 2.55392 41.8981C2.44708 41.7223 2.3449 41.541 2.24925 41.3556C2.40331 41.2943 2.55755 41.2324 2.71144 41.1732C2.4026 40.712 2.09657 40.3398 1.86925 39.8729C1.62435 39.3628 1.46635 38.7245 1.67327 37.8012C1.3802 38.2748 1.11978 38.7855 0.903255 39.3309C1.07735 39.471 1.25546 39.604 1.43457 39.7275C1.43486 39.7908 1.43576 39.8542 1.43729 39.9177C1.45602 40.7002 1.56873 41.4824 1.77066 42.251C1.99769 42.3214 2.22362 42.3821 2.45081 42.4375C2.50635 42.647 2.56693 42.8496 2.6357 43.057C2.48749 43.066 2.33929 43.0724 2.18929 43.0754C2.39892 43.4637 2.64427 43.8599 2.89105 44.2113C1.67751 43.8272 1.90215 41.8962 1.31788 42.2403C1.35215 42.0073 1.39486 41.7783 1.44519 41.5544C1.10569 41.5559 1.07137 41.1145 1.0147 40.371C0.877337 40.563 0.751093 40.7802 0.620815 40.9725C0.649116 40.6961 0.644904 40.3586 0.642397 40.0002C0.634105 39.3395 0.648872 38.6088 0.744715 38.1193C0.809819 37.7893 1.02243 38.1406 1.05847 38.0444C1.2324 37.5709 0.993416 36.5676 1.08218 36.3691C1.57293 35.2165 2.56116 34.8484 2.64959 33.4971C1.95939 34.6226 2.32415 34.0019 1.86255 34.3196C1.71923 34.4125 0.8937 35.9949 1.7984 33.9735C1.83019 33.6509 4.37831 30.6549 4.03881 31.9707C4.27096 31.3883 4.43419 30.91 4.67819 30.3744C6.41075 30.011 5.31832 29.7123 4.61121 29.6567C4.76276 29.4714 4.89755 29.3055 5.05793 29.1236C5.17121 29.8819 6.9078 28.0402 7.364 27.2488C7.51086 26.9749 6.7763 27.3936 7.21461 26.8631C7.48642 26.6704 7.79156 26.4712 8.08228 26.2816C7.45392 26.323 8.10358 25.5653 7.84491 25.2802C8.55086 25.1353 9.38463 25.4081 9.36855 25.9305C9.66217 25.4844 9.96347 25.0446 10.2759 24.6058C10.0347 24.6729 9.78117 24.753 9.53709 24.8273C11.0005 23.9773 12.4828 22.3194 13.2292 22.8087C13.4088 22.684 13.5926 22.559 13.7759 22.4349C13.7595 22.2823 13.7416 22.1304 13.7264 21.9773C14.6378 21.54 15.5556 21.1289 16.4847 20.7345C15.7517 21.2553 15.6813 21.5232 14.7966 21.8759C15.1865 21.8222 15.5812 21.7704 15.9607 21.7299C16.9537 20.6598 16.9802 20.3097 18.9083 19.428C18.9929 19.3858 20.5774 18.9768 20.6399 18.9886C20.9334 19.0199 20.6988 19.3948 20.8337 19.4174C21.212 19.4743 23.1205 19.1848 23.1283 19.2797C23.1282 20.3817 17.7025 23.1794 16.3771 24.1379C10.1548 28.2116 3.62072 33.8566 4.12637 39.6387C4.9471 46.7715 15.1672 51.4215 23.7459 53.7604C23.918 53.8065 23.8851 53.6368 23.9593 53.6506C24.4062 53.7348 24.7813 54.0838 24.9448 54.1372C25.2941 54.25 25.155 53.9837 25.4146 54.0509C28.0914 54.7432 30.648 55.4105 33.4003 55.8484C33.5802 55.8768 33.3664 56.0209 33.6878 56.0437C33.8541 56.0547 34.4115 55.871 34.7848 55.9265C36.0557 56.1154 37.1415 56.362 38.5005 56.5356C39.2376 56.63 40.3619 56.7893 41.2068 56.8774C41.5722 56.9159 41.9677 56.8323 42.3322 56.8654C42.85 56.9122 42.72 57.1531 42.7982 57.1768C43.143 57.2797 43.2186 57.0078 43.5527 57.046C44.1743 57.1169 44.198 57.3059 44.9776 57.3568C45.5361 57.3935 46.8376 57.3469 47.5601 57.3515C49.1874 57.68 51.3198 57.7027 52.8629 57.6856C53.7858 57.6761 53.8655 57.9368 54.2443 57.9473C55.569 57.9794 56.5701 57.6654 57.8241 57.6667C59.4643 57.667 60.9418 57.8807 62.5377 57.8721C62.7962 57.8705 62.7329 57.6334 62.9864 57.6229C63.9221 57.5845 65.1422 57.5094 65.9746 57.5154C66.9056 57.5214 67.2642 57.8534 68.1801 57.7438C68.4488 57.7111 68.5141 57.4051 68.9643 57.345C69.6814 57.2499 70.4734 57.4749 70.9779 57.4758C71.6673 57.4754 71.0511 57.2031 71.981 57.188C72.0192 57.1875 72.1719 57.3991 72.371 57.3758C72.9507 57.3084 72.8855 57.1393 73.7278 57.0974C73.8081 57.0948 74.9441 57.2223 75.0567 57.2137C75.7117 57.1681 77.0551 57.1299 77.4321 57.051C78.8028 56.7687 77.6799 56.5375 78.9273 57.1451C79.4315 56.9203 79.9308 56.6918 80.4664 56.465C80.2997 56.5578 80.5513 56.6243 80.8752 56.6648C81.2365 56.7102 81.6858 56.7228 81.7404 56.7089C82.5967 56.4947 82.0494 56.274 83.1517 56.1959C81.7773 57.0041 84.5721 56.1187 85.2095 56.0177C88.2794 55.5537 91.0725 55.3109 94.1516 54.791C95.1787 54.6173 96.5218 54.2412 97.611 54.041C97.8635 53.9941 97.7009 54.1804 97.9237 54.142C98.1457 54.1026 97.8683 53.9798 98.1225 53.9411C99.6926 53.7045 101.007 53.771 102.349 53.0723C102.431 53.1149 102.438 53.1608 102.567 53.1993C103.652 52.6005 106.028 52.5616 106.874 52.4258C108.231 52.2081 108.507 51.8846 109.47 51.6925C110.738 51.4421 112.772 51.3858 111.717 50.8505C112.576 50.5935 113.38 50.3632 114.281 50.1818C114.38 50.162 114.369 50.3747 114.409 50.3676C114.663 50.3247 114.693 50.1283 114.855 50.0724C115.297 49.9206 114.627 50.3409 115.248 50.0967C115.574 49.9669 115.723 49.7612 116.641 49.4797C122.251 47.7609 128.241 45.6258 133.578 43.092C133.951 42.9141 133.623 42.857 134.091 42.643C135.696 41.924 138.637 40.7041 139.899 39.8729C141.159 39.053 140.731 38.9764 141.445 38.3765C141.581 38.2597 141.548 38.4755 141.684 38.3892C142.612 37.8004 143.803 37.2654 144.545 36.7465C145.027 36.4099 144.831 36.237 145.13 35.9769C145.561 35.6009 146.219 35.3822 146.459 35.1844C147.592 34.2401 148.171 33.3819 149.136 32.4475C149.06 32.4495 148.998 32.4408 148.928 32.4369C149.975 31.2639 150.859 30.0312 151.485 28.7447C151.41 28.7823 151.335 28.8172 151.259 28.8532C151.97 27.3889 152.342 27.7331 151.21 27.4709C151.207 27.3561 151.197 27.2356 151.19 27.1308C151.741 27.3679 152.509 26.5957 152.73 25.3961C152.752 25.2982 152.162 24.7406 152.857 24.7857C152.682 24.6366 152.559 24.5547 152.4 24.4428C152.451 24.3756 152.5 24.3068 152.549 24.2365C152.684 24.0392 152.81 23.831 152.928 23.6142C152.872 23.4812 152.814 23.3482 152.751 23.2195C152.613 23.2312 152.479 23.2788 152.338 23.2689C152.205 22.6845 151.834 21.4096 151.523 20.9627C150.803 19.8263 149.607 19.0664 149.041 18.0102C148.609 17.6786 148.842 18.2357 148.246 17.6803C148.262 17.5165 148.276 17.3595 148.286 17.1876C147.365 17.2288 147.519 16.8741 146.792 16.2076C146.307 15.7705 145.878 15.6716 145.35 15.3163C145.215 15.2266 145.326 15.0856 145.227 15.0333C144.914 14.864 143.884 14.5717 143.643 14.4563C141.542 13.4258 139.653 12.6069 137.501 11.76C137.266 11.6691 137.511 11.943 137.274 11.8506C136.897 11.7051 137.211 11.5295 136.992 11.4392C136.377 11.1901 136.285 11.4567 135.385 11.1807C132.456 10.2872 129.047 9.21821 125.852 8.57195C125.752 8.55218 125.725 8.71701 125.616 8.6973C124.901 8.56553 124.224 8.21164 123.583 8.1014C122.515 7.91769 121.646 8.01424 120.599 7.85549C118.51 7.54241 116.66 7.18891 114.503 6.95688C112.731 6.76856 111.203 6.65721 109.239 6.51926C100.72 5.9292 91.9959 6.52676 83.3823 6.83031C83.1644 6.83773 83.2428 6.68468 83.1768 6.69561C82.5496 6.80309 82.5076 7.00616 82.2521 6.60719C81.4502 6.74899 81.22 7.08003 80.2396 7.13805C79.7183 7.17007 80.0597 6.65383 79.2072 6.97864C78.435 7.27581 79.3376 7.45379 76.9526 7.40942C76.8894 7.40818 76.5521 7.14412 76.0667 7.27109C75.8035 7.33941 75.8557 7.41511 75.7732 7.49952C75.7032 7.57161 75.5355 7.64953 74.994 7.73708C72.2325 8.18111 68.6911 8.37266 65.491 8.94514C65.29 8.97862 63.3795 9.44179 63.0111 9.57936C62.2966 9.84225 62.4871 10.032 61.5415 10.2498C60.8113 10.4189 60.1587 10.2825 59.3015 10.4916C59.2014 10.5164 59.08 10.7984 58.424 10.8883ZM106.384 56.3523C106.258 56.6383 106.136 57.6172 104.956 57.5905C104.845 57.588 105.278 56.8415 104.641 56.8786C105.229 56.6806 105.807 56.5282 106.384 56.3513C106.384 56.3517 106.384 56.352 106.384 56.3523ZM52.4916 6.08026C53.3335 5.94572 54.1787 5.81581 55.0215 5.69245C54.4679 5.9186 53.9165 6.14675 53.3683 6.37799C53.0762 6.27826 52.785 6.17862 52.4916 6.08026ZM154.834 18.2734C154.833 18.2727 154.833 18.2719 154.832 18.2712C155.464 19.0231 156.045 19.8792 156.514 20.8065C156.393 20.734 156.272 20.6639 156.151 20.5965C155.733 19.9176 155.238 19.2628 154.728 18.705C154.766 18.5628 154.801 18.4187 154.834 18.2734ZM148.983 13.7182C148.566 13.2968 148.772 13.2286 148.611 12.9115C148.611 12.9117 148.61 12.912 148.61 12.9123C148.567 12.8287 148.263 12.5809 148.137 12.4931C148.125 12.6161 148.126 12.7465 148.117 12.8708C146.854 12.3595 144.986 10.2094 148.199 11.6626C148.08 11.7522 147.964 11.8429 147.846 11.9334C149.336 12.7983 150.701 14.2518 148.983 13.7182ZM93.2694 59.3067C91.9356 59.9791 91.4982 60.1448 89.7303 60.0847C89.9557 59.9221 90.1803 59.7593 90.404 59.5961C90.7065 59.6848 91.0068 59.7725 91.3092 59.8601C91.31 59.86 91.3108 59.8599 91.3116 59.8597C91.3476 59.7145 91.3836 59.569 91.4171 59.4241C92.0357 59.3875 92.6501 59.3488 93.2694 59.3067ZM96.2227 2.36736C95.8194 1.46047 95.9387 1.98587 97.0739 1.77953C97.4667 1.70849 97.084 1.54914 97.3285 1.52286C98.647 1.38133 98.7482 1.99515 98.4507 2.30921C97.7108 2.32549 96.9591 2.34421 96.2251 2.36735C96.2243 2.36735 96.2235 2.36735 96.2227 2.36736ZM62.2089 5.47585C62.2081 5.47598 62.2073 5.47612 62.2065 5.47625C62.1362 5.26304 62.6511 5.11704 62.0248 5.00808C62.4752 4.93375 62.9262 4.86177 63.3793 4.79002C63.2496 4.83172 63.1171 4.87304 62.9878 4.91495C63.1171 4.97115 63.2468 5.02836 63.3761 5.08477C63.4959 4.80739 63.6679 4.92964 64.1544 4.93963C63.9815 4.69102 63.8087 4.4423 63.635 4.19405C64.1993 4.18672 64.7661 4.18155 65.3296 4.17881C65.3466 4.24567 65.3637 4.31262 65.3807 4.37948C65.5756 4.26147 65.7686 4.14308 65.9638 4.02564C66.0323 4.09838 66.0985 4.17072 66.167 4.24352C66.4092 4.14528 66.6514 4.04757 66.8939 3.94937C66.9983 4.13517 66.4573 4.29829 67.4309 4.10947C67.1589 4.35334 66.8869 4.59723 66.6144 4.84246C65.1439 5.03872 63.675 5.24954 62.2089 5.47585ZM106.548 2.32402C104.893 2.28065 105.376 2.16257 105.77 1.72901C106.03 1.92678 106.291 2.12516 106.548 2.32402ZM138.741 44.6301C138.468 45.1258 138.169 45.6273 137.87 46.1146C137.087 46.7114 135.95 46.6431 136.514 46.1197C137.182 45.4936 138.133 45.3335 138.741 44.6301ZM118.339 53.0513C119.521 52.8339 118.558 53.5154 118.359 53.7983C117.936 53.5703 117.519 53.7294 116.803 53.8999C117.457 53.6839 118.139 53.0877 118.338 53.0503C118.338 53.0506 118.338 53.051 118.339 53.0513ZM153.913 32.7662C154.19 32.3379 154.369 31.8816 154.68 31.5431C154.87 31.8131 154.177 32.4421 154.882 32.1152C154.723 32.3977 154.555 32.6791 154.38 32.9576C154.344 32.6846 154.077 32.8434 153.915 32.7657C153.914 32.7658 153.914 32.766 153.913 32.7662ZM122.411 3.5986C123.294 4.09325 123.491 3.97542 124.461 3.90084C124.542 4.20213 123.359 4.47531 122.642 4.46601C122.567 4.17707 122.491 3.88788 122.411 3.5986ZM0.347661 35.4118C0.597912 35.7509 0.250776 37.4834 0.142758 38.3861C0.0940773 38.2768 0.0462857 38.1657 7.08875e-06 38.0534C0.0180334 37.1643 0.141326 36.2708 0.347661 35.4118ZM116.461 53.9753C116.582 53.9508 116.696 53.9254 116.803 53.8999C116.687 53.9384 116.572 53.9658 116.461 53.9753ZM67.4573 60.1503C67.831 59.7947 66.6755 59.7275 68.0784 59.8033C68.0784 59.8029 68.0784 59.8026 68.0784 59.8023C69.0071 59.8496 69.2207 59.8626 70.0698 59.8456C69.7877 60.2981 68.0602 60.5417 70.4537 60.5098C70.4853 60.5084 70.4084 60.2524 70.7924 60.2668C70.9109 60.2713 71.3005 60.4636 71.8815 60.4907C72.069 60.4993 73.4766 60.4784 71.5645 60.5997C71.6393 60.9004 71.5549 61.2144 71.5767 61.5092C70.8329 61.6388 70.2277 61.0741 69.4451 61.1273C68.2661 61.2077 67.6928 61.8324 67.4359 61.0508C68.4144 60.8197 70.1095 60.7304 70.351 61.193C71.303 61.1474 71.5537 60.7411 70.7765 60.5919C67.5136 61.0036 69.8447 60.0692 66.9846 60.4998C66.9548 60.6111 66.841 60.7338 66.8628 60.8365C65.9731 60.4808 67.3237 60.2784 67.4573 60.1503ZM74.3721 60.6062C73.8224 60.8791 73.2772 61.1514 72.7187 61.4212C72.6921 61.0427 72.9948 60.6838 73.8652 60.4092C74.0331 60.4754 74.2037 60.5412 74.3721 60.6062ZM26.666 57.9068C26.5394 58.089 26.2835 58.2229 26.083 58.3767C25.9575 58.1899 21.995 56.9694 24.065 57.3428C24.357 57.3995 26.0969 58.2104 26.666 57.9068ZM115.928 3.0403C116.4 3.23174 116.869 3.42546 117.332 3.62072C116.584 3.61859 115.821 3.62303 115.088 3.63565C115.369 3.43662 115.647 3.23791 115.928 3.0403ZM131.475 47.7264C131.665 47.6527 131.158 48.1814 131.875 47.8217C131.401 48.226 130.941 48.5886 130.456 48.9755C130.24 48.9203 130.021 48.8663 129.806 48.81C129.713 48.941 129.618 49.0725 129.524 49.2035C129.526 48.9918 129.521 48.7878 129.525 48.5715C130.602 48.5813 130.638 48.0502 131.475 47.7264ZM153.881 29.8746C154.349 29.8904 153.932 31.3037 154.62 30.0544C154.759 30.4118 154.701 30.8947 154.286 31.6554C154.126 31.718 153.966 31.7785 153.804 31.8367C154.036 32.0026 154.018 32.2427 153.913 32.7662C153.913 32.7664 153.912 32.7666 153.912 32.7667C153.177 33.8688 153.131 33.7207 152.574 33.6848C153.598 32.7751 153.279 32.4528 153.541 31.5616C153.706 30.9655 154.163 30.2491 153.881 29.8746ZM30.9606 58.8072C29.9651 58.9797 30.7232 59.4738 29.1661 58.7703C29.2891 58.7027 29.4124 58.6357 29.5354 58.5678C30.0064 58.6491 30.4815 58.7291 30.9606 58.8072ZM156.495 25.6819C155.839 25.781 155.236 26.5683 156.253 26.9105C156.607 26.0034 155.946 26.4009 156.495 25.6819ZM118.422 51.9481C120.004 51.4841 119.933 52.281 119.396 52.8413C119.255 52.7443 119.114 52.6468 118.976 52.5496C118.717 52.6949 118.457 52.84 118.194 52.9837C118.272 52.6387 118.348 52.2929 118.422 51.9481ZM135.054 7.5833C136.399 7.49684 133.815 6.94362 134.748 6.91464C135.502 6.89007 136.239 7.61785 135.818 7.79698C135.586 7.73343 135.328 7.6602 135.056 7.584C135.055 7.58377 135.054 7.58353 135.054 7.5833ZM141.997 9.93957C142.002 9.39718 142.229 9.6466 141.252 9.33786C140.966 9.23564 138.923 8.2569 139.666 8.9839C140.421 9.26952 141.218 9.59778 141.997 9.93957ZM100.112 57.281C100.05 57.0724 101.675 56.2582 101.914 56.3293C101.914 56.3289 101.914 56.3286 101.914 56.3283C102.572 56.5272 100.777 56.9418 101.65 57.2217C99.8244 57.1887 99.5068 58.2152 99.3849 56.9586C100.388 56.7081 99.9576 57.0553 100.112 57.281ZM16.3762 20.5716C16.3769 20.5712 16.3776 20.5708 16.3783 20.5704C16.2755 20.6152 15.2702 20.8317 15.3171 20.6765C16.3811 20.1644 16.2909 20.4603 17.0785 19.623C17.1856 19.6913 17.2817 19.762 17.3916 19.83C17.0472 20.0956 16.9006 20.3303 16.3762 20.5716ZM22.4799 56.3661C22.9145 56.4323 23.5912 56.8652 24.0621 56.9748C22.3487 57.4641 20.7633 56.0966 22.4799 56.3661ZM78.0572 3.40996C78.0584 3.40953 78.0595 3.4091 78.0607 3.40866C78.0604 3.40918 78.06 3.4097 78.0596 3.41023C78.0588 3.41014 78.058 3.41005 78.0572 3.40996ZM55.0562 61.303C55.003 61.2427 54.9734 61.1907 54.9634 61.1454C54.9635 61.1412 54.9636 61.137 54.9637 61.1327C54.9919 61.1887 55.022 61.2453 55.0562 61.303ZM96.5621 58.01C95.7936 57.8379 98.095 56.9358 98.8772 56.9006C98.8496 57.0473 98.8648 57.1728 98.7695 57.3533C98.0879 57.1175 96.687 58.0413 96.5621 58.01ZM147.742 38.5064C146.261 39.6815 147.418 37.2207 148.116 37.8695C148.128 37.8852 147.779 38.4763 147.742 38.5064ZM111.266 54.6865C111.649 54.2096 110.675 54.3675 112.209 54.0266C112.321 54.0943 112.433 54.162 112.546 54.2295C112.122 54.3828 111.695 54.5355 111.266 54.6865ZM136.407 43.8407C134.394 45.1003 132.453 46.3554 134.293 46.6161C134.443 46.51 134.596 46.4037 134.744 46.2974C134.552 45.8457 135.286 45.7967 136.176 45.3714C136.215 45.1349 136.678 44.8513 136.692 44.6582C136.719 44.2857 136.072 44.3635 136.407 43.8407ZM90.8317 3.57206C90.8674 3.48728 90.9022 3.40209 90.938 3.31815C91.3141 3.2121 91.6968 3.10738 92.0752 3.00341C92.0177 3.16539 91.9601 3.32739 91.9028 3.48942C91.5467 3.51612 91.1854 3.54404 90.8341 3.57247C90.8333 3.57233 90.8325 3.5722 90.8317 3.57206ZM76.6249 59.3946C76.4821 60.3291 77.2355 60.1013 78.7237 59.497C78.0222 59.4663 77.3324 59.4314 76.6249 59.3946ZM150.596 16.5687C150.74 16.3453 150.882 16.1218 151.021 15.8944C150.234 15.5521 150.157 15.8913 150.207 16.3961C150.338 16.4533 150.467 16.5095 150.596 16.5687ZM140.676 10.754C140.97 10.9343 140.89 10.6731 140.921 10.6906C141.673 11.1279 141.724 11.252 142.741 11.5437C142.882 11.5482 143.022 11.5496 143.163 11.5535C142.949 10.8473 142.511 10.9673 141.697 10.2654C141.794 10.5116 141.888 10.7576 141.979 11.0039C141.48 10.7405 140.966 10.4815 140.442 10.2276C140.359 10.2566 140.276 10.2853 140.193 10.3146C140.347 10.4561 140.515 10.6143 140.676 10.754ZM86.4438 3.51863C85.887 3.52634 85.3258 3.53566 84.7654 3.54801C84.7531 3.68394 84.7417 3.82074 84.7295 3.95667C85.301 3.80832 85.8739 3.66214 86.4438 3.51863ZM65.2109 60.4546C65.1677 60.5038 65.1256 60.5531 65.0884 60.6032C65.0905 60.5434 65.1379 60.4955 65.2109 60.4546ZM18.023 20.499C18.6205 20.2792 19.3909 19.802 20.0208 19.5037C19.8142 19.2248 18.294 20.1231 17.6582 20.245C17.601 20.346 17.7717 20.5911 18.023 20.499ZM120.593 51.2865C120.688 51.0775 120.791 50.8666 120.887 50.6569C121.26 50.5527 121.631 50.4483 122.001 50.3414C121.967 50.2069 121.933 50.0713 121.899 49.9368C120.351 50.649 120.581 50.1476 119.678 50.0296C119.983 50.4487 120.286 50.868 120.593 51.2865ZM68.8578 6.04943C70.0583 5.79384 70.4686 5.5677 69.7291 5.24467C69.3116 5.39514 68.8928 5.5472 68.4765 5.70015C68.6044 5.81633 68.7324 5.93274 68.8578 6.04943ZM42.8891 59.4532C41.8509 59.5066 41.8925 58.9511 40.8746 59.1529C41.3896 59.3132 41.9093 59.4723 42.4318 59.6275C42.5829 59.5697 42.7378 59.5115 42.8891 59.4532ZM92.8239 55.9982C92.3657 55.8755 91.723 56.9108 90.4224 56.4174C90.1669 56.6604 90.0156 56.8784 89.7975 57.1108C89.623 56.9178 89.4288 56.7247 89.2618 56.5319C89.261 56.532 89.2602 56.5322 89.2594 56.5323C88.1782 56.7591 88.9227 56.9273 88.9308 57.1579C88.9302 57.2544 88.1064 57.2084 88.3856 57.3785C88.8623 57.6731 90.4801 57.2322 90.5447 57.659C89.9508 57.6049 88.84 57.8817 89.2139 58.1204C89.6258 58.3828 90.6103 57.7029 91.3198 57.8606C90.2553 57.3221 92.2698 57.2324 92.5761 57.7197C93.6784 57.1299 92.5793 57.1408 91.3943 57.341C92.0594 56.8269 91.023 57.2087 90.7958 56.8998C91.5141 56.5898 94.1082 56.3441 92.8239 55.9982ZM144.719 38.6307C144.106 39.113 142.911 39.642 142.658 40.2139C142.501 40.5565 143.631 39.9997 143.082 40.7366C143.713 40.2857 143.804 40.0704 143.534 39.9211C143.667 39.7916 143.8 39.6614 143.93 39.5326C144.029 39.5296 144.129 39.5245 144.228 39.5211C144.241 39.3741 144.253 39.2279 144.262 39.0828C144.429 38.9925 144.596 38.9006 144.76 38.8102C144.744 38.7512 144.745 38.6892 144.719 38.6307ZM14.3656 52.8511C14.5692 52.9386 14.7728 53.0246 14.9808 53.1099C14.9847 53.0384 14.9855 52.9626 14.987 52.888C14.9901 52.83 14.9933 52.7719 14.9966 52.7139C15.0276 52.9427 15.9154 53.669 16.4079 53.6374C16.6544 53.622 16.3169 53.0939 17.2216 53.3765C16.5797 53.1499 15.9585 52.953 15.3254 52.7164C15.4242 52.6389 15.5211 52.5592 15.6194 52.4813C15.6191 52.481 15.6188 52.4807 15.6185 52.4804C15.4231 52.3706 15.2282 52.2581 15.0377 52.1472C14.8144 52.3828 14.5916 52.6176 14.3656 52.8511ZM150.7 17.3879C151.365 17.7526 151.604 17.8687 151.629 17.3745C151.628 17.3738 151.628 17.3732 151.628 17.3725C151.326 17.2754 151.022 17.1854 150.715 17.102C150.711 17.1972 150.705 17.292 150.7 17.3879ZM58.5477 59.3807C56.91 60.7003 60.5912 59.9004 59.8899 59.4445C59.8576 59.4246 58.6984 59.529 58.5477 59.3807ZM118.011 51.6481C118.441 51.5039 118.87 51.3592 119.297 51.2119C119.149 51.088 118.998 50.9653 118.85 50.841C118.574 51.1101 118.293 51.3798 118.011 51.6481ZM74.2135 5.99991C74.527 6.19077 75.1081 6.26476 75.6372 6.1892C75.9698 6.14168 76.2814 6.03557 76.494 5.86121C76.1962 5.84691 75.8977 5.83321 75.5989 5.8202C75.5813 5.81943 75.5638 5.81865 75.5462 5.81788C75.5634 5.81474 75.5805 5.8116 75.5977 5.80846C76.1646 5.70497 76.7246 5.6004 77.2946 5.50378C77.2776 4.99584 76.6243 5.35261 75.5783 5.32023C75.5701 5.31992 75.5594 5.31829 75.5465 5.31552C75.3092 5.26327 74.3174 4.82164 74.034 5.30696C73.9743 5.41132 75.0608 5.35977 74.3416 5.72353C74.6717 5.70988 74.9541 5.67462 75.2652 5.65434C75.3003 5.77219 75.3352 5.89021 75.3725 6.00784C74.9855 6.00443 74.6005 6.00128 74.2135 5.99991ZM140.85 41.2325C139.9 41.7697 139.873 42.0118 139.85 42.4396C140.284 42.1438 140.709 41.8473 141.122 41.5493C141.031 41.4446 140.942 41.3381 140.85 41.2325ZM84.1619 5.24979C84.7773 5.26965 84.4971 4.99516 84.74 4.92458C85.6581 4.65998 86.3023 4.83336 87.2073 4.6575C87.1496 4.71672 87.0966 4.77203 87.0411 4.82952C87.0419 4.82948 87.0427 4.82944 87.0435 4.8294C91.4109 4.88282 89.0934 4.31038 86.4932 4.54915C86.4268 4.44403 86.3627 4.33868 86.2961 4.23445C85.1441 4.48544 84.0763 4.7377 84.1619 5.24979ZM73.0793 58.8787C73.0251 58.8141 73.4194 58.356 72.6385 58.6097C72.0492 59.2787 73.0636 58.9005 73.3358 59.1242C73.1279 59.1989 72.9084 59.2724 72.6996 59.3465C73.9994 59.4393 74.1668 59.2742 73.6721 58.8481C73.6362 58.8198 73.1362 58.9429 73.0793 58.8787ZM64.6486 58.9602C64.4958 59.8939 66.1122 59.4294 66.0387 59.142C65.8159 59.1378 65.6515 59.3002 65.4101 59.2379C65.1671 59.1755 65.0992 58.9608 64.6486 58.9602ZM110.478 52.906C110.432 52.9139 109.879 52.6531 110 52.9372C110.737 53.4963 111.789 52.7371 111.518 52.548C111.142 52.6607 110.911 52.8334 110.478 52.9051C110.478 52.9054 110.478 52.9057 110.478 52.906ZM66.9433 7.14663C66.9693 7.16827 68.1649 7.15678 68.297 6.99244C68.3994 6.81282 68.4375 6.63028 68.5084 6.44928C67.8807 6.69278 66.5528 6.76374 66.9457 7.14629C66.9449 7.1464 66.9441 7.14652 66.9433 7.14663Z" fill="#28C7B3"/>
</svg>
