<svg width="376" height="10" viewBox="0 0 376 10" fill="none" xmlns="http://www.w3.org/2000/svg">
<path d="M31.0739 0.817846C30.2146 0.487136 33.0493 0.623963 31.1533 0.151572C31.5434 0.101374 31.9361 0.0500355 32.3265 1.21593e-05C32.4328 0.195963 32.5415 0.39135 32.6478 0.587316C32.1237 0.6643 31.5998 0.741437 31.0739 0.818822C31.0739 0.818496 31.0739 0.818171 31.0739 0.817846ZM30.4411 3.34079C30.911 2.75449 32.4295 2.54914 30.7585 2.08267C30.6329 2.28257 30.5041 2.48255 30.3786 2.68247C29.7946 2.55172 29.2074 2.42133 28.6242 2.29179C28.4191 2.37377 28.2145 2.45583 28.0095 2.53703C27.7327 2.20754 27.4582 1.87709 27.1813 1.54686C27.4178 1.58782 27.6576 1.62957 27.8942 1.6706C28.8124 1.36116 29.6374 1.25579 30.8986 1.15969C30.7858 1.08333 30.671 1.00775 30.5573 0.931434C31.2032 1.04515 31.8392 1.1598 32.4783 1.27425C31.9327 1.42739 31.3241 1.598 30.8186 1.74099C31.6527 2.24381 33.0797 1.89775 33.8262 1.76121C34.8424 1.57491 34.6202 1.8357 35.3751 1.70424C35.4956 1.68362 35.5028 1.48492 35.7422 1.47355C36.9498 1.41708 39.3071 1.44595 37.946 1.95324C35.9509 1.95874 34.2682 2.38741 32.3186 2.31945C32.8502 2.83648 31.838 3.05355 30.4411 3.34079ZM66.9367 0.591143C66.3397 0.864248 65.1115 0.78689 64.278 0.625641C64.2771 0.625663 64.2762 0.625684 64.2752 0.625707C64.0918 0.590169 63.6704 0.254381 64.2666 0.25473C65.2389 0.256547 65.7216 0.789618 66.2242 0.409168C66.4543 0.472764 66.6957 0.528559 66.9367 0.591143ZM69.0542 0.512897C69.6556 0.633409 69.3926 1.04873 68.6413 0.953961C68.6413 0.954287 68.6413 0.954612 68.6413 0.954938C68.3279 0.915338 68.9341 0.578263 67.8209 0.931191C67.5865 0.680518 67.3563 0.45286 67.1248 0.210457C67.3989 0.200284 67.6488 0.188103 67.9366 0.178532C67.752 0.602974 68.4531 0.393448 69.0542 0.512897ZM38.9509 1.68911C39.0331 1.30814 38.6382 1.32318 37.9579 1.0828C38.5923 1.07454 39.2275 1.06733 39.8603 1.0596C39.556 1.26967 39.2548 1.47894 38.9509 1.68911ZM24.0814 2.15407C24.0804 2.15411 24.0794 2.15414 24.0785 2.15418C23.8738 2.22167 23.6686 2.28943 23.4666 2.35604C23.3378 2.22595 23.2105 2.0964 23.0817 1.96633C22.356 2.1212 21.6272 2.27651 20.9033 2.43283C20.9755 2.01734 22.2872 2.03271 22.9989 1.71692C24.0782 1.79943 24.6062 2.01897 24.6893 2.3654C24.4874 2.29523 24.286 2.22409 24.0814 2.15407ZM200.257 1.90637C200.502 1.79431 200.744 1.68214 200.99 1.57011C200.665 1.51508 200.344 1.47244 200.017 1.40914C199.156 1.89832 199.075 1.45821 197.947 1.47915C194.49 1.54469 195.4 2.3236 192.295 1.16947C194.794 1.2425 193.838 0.704167 195.35 0.30725C195.66 0.621055 194.159 1.31111 195.171 1.46497C196.918 1.14959 198.612 0.857002 200.544 0.661369C200.488 0.607063 200.433 0.55257 200.377 0.498266C200.07 0.529499 199.769 0.561008 199.459 0.592256C199.794 0.451109 200.115 0.31111 200.453 0.168375C200.026 0.491599 201.108 0.318488 200.96 0.692905C200.894 0.859563 200.415 1.08732 200.131 1.24463C200.858 1.33794 201.603 1.42426 202.338 1.51541C201.956 1.64516 201.574 1.7751 201.194 1.90495C200.883 1.90629 200.574 1.9065 200.263 1.90789C200.261 1.90738 200.259 1.90688 200.257 1.90637ZM357.269 2.81796C356.334 3.18683 354.651 3.21469 353.776 2.76263C354.94 2.78123 356.103 2.79921 357.269 2.81796ZM24.7705 2.65059C24.6632 2.58847 24.5593 2.52694 24.452 2.46483C24.9098 2.32478 25.3706 2.18559 25.8292 2.04577C25.9252 2.23347 26.0232 2.42114 26.1219 2.60792C25.6722 2.62227 25.2197 2.63601 24.7705 2.65059ZM54.3915 1.48804C54.054 1.50854 54.024 1.50306 53.6027 1.48702C53.6032 1.48717 53.6036 1.48732 53.6041 1.48747C53.437 1.48165 52.0405 1.40772 52.1919 1.25643C52.8834 1.23511 53.6219 1.21778 54.3309 1.19903C54.3549 1.29524 54.3622 1.39114 54.3915 1.48804ZM46.2067 1.63061C46.2057 1.63031 46.2047 1.63002 46.2038 1.62972C45.9503 1.61481 45.7096 1.5764 45.4487 1.57585C46.3805 1.31648 46.5412 1.72757 47.3918 1.58524C48.2423 1.44217 48.7645 1.19789 49.5066 1.74652C49.239 1.83938 48.9519 1.96957 48.6769 2.0768C47.457 1.88394 47.1369 2.10765 46.1721 2.36042C46.1838 2.1166 46.1949 1.87444 46.2067 1.63061ZM184.904 0.637098C184.67 0.917071 184.413 0.639247 184.386 0.635748C184.387 0.635426 184.387 0.635104 184.388 0.634781C182.332 0.882612 184.656 0.480528 182.718 0.424728C183.007 0.356126 183.291 0.283582 183.577 0.214181C184.018 0.352663 184.473 0.509353 184.904 0.637098ZM118.262 0.606374C118.242 0.524546 118.219 0.442561 118.2 0.360733C119.359 0.371452 119.652 0.0467873 120.619 0.334186C119.832 0.425497 119.047 0.51642 118.262 0.607351C118.262 0.607025 118.262 0.6067 118.262 0.606374ZM60.2692 1.93515C58.9802 2.12313 58.0272 2.21592 56.783 1.99925C56.7821 1.99895 56.7811 1.99865 56.7801 1.99835C56.7084 1.98489 57.0492 1.80464 56.9549 1.76384C56.7002 1.79599 56.4374 1.84218 56.1803 1.87944C56.1418 1.74307 56.105 1.60668 56.0665 1.47113C56.7937 1.49127 57.5218 1.51163 58.2531 1.53222C58.1432 1.45464 58.0309 1.37783 57.9211 1.30026C58.5396 1.24329 59.1564 1.18671 59.776 1.13011C59.5657 1.36045 59.356 1.59086 59.1486 1.82201C59.5218 1.85996 59.8957 1.89624 60.2692 1.93515ZM137.624 1.40837C137.418 1.3195 137.797 1.16851 137.479 1.09236C137.16 1.01719 136.574 1.18574 136.711 0.932891C137.139 0.897738 137.589 0.857612 138.026 0.82091C136.619 0.369262 135.22 0.785727 135.197 0.223665C136.544 0.365072 137.653 0.294302 138.959 0.135523C138.906 0.581827 137.601 0.970931 138.424 1.38774C138.16 1.3942 137.882 1.40338 137.626 1.40738C137.625 1.40771 137.624 1.40804 137.624 1.40837ZM6.19367 9.034C5.39626 9.03687 3.58602 9.30462 2.5729 9.09337C2.32353 9.04119 1.46328 8.25206 1.46211 8.14263C1.46819 7.77345 2.46773 7.67469 1.38302 7.48704C1.74384 7.46696 2.09348 7.43617 2.45186 7.41227C2.37561 7.1681 2.29981 6.92458 2.2263 6.68111C1.79132 6.73942 1.35632 6.79805 0.92214 6.85743C0.896742 6.77661 0.871334 6.6956 0.845932 6.61478C2.41428 6.53664 1.47289 6.26578 2.27313 5.93193C1.51558 5.81931 0.753349 5.70806 2.28919e-06 5.59606C0.431443 5.59299 0.94042 5.58156 1.32181 5.58454C1.35214 5.1628 0.449997 5.30708 0.290971 5.23708C-0.607188 4.8404 3.86389 4.84514 4.2041 4.21878C3.48604 4.18478 2.73361 4.15443 2.00102 4.12273C2.20653 4.03736 2.41495 3.95185 2.62068 3.86654C4.29667 4.20781 6.16473 4.26957 8.11663 4.44356C8.29108 4.41824 8.46595 4.39246 8.63786 4.36813C8.57807 4.18112 8.52102 3.99471 8.46111 3.8077C8.72473 3.77339 8.99181 3.73914 9.25563 3.70492C8.50063 4.36379 9.59133 4.30579 10.8993 4.62924C10.2243 4.87858 9.35804 4.7843 9.43624 5.18994C11.7965 4.76913 14.5758 5.0942 16.875 4.6437C17.4452 4.53232 17.4211 4.00534 18.7746 3.99888C18.7311 4.05865 18.7275 4.16351 18.7008 4.24083C21.0386 3.8934 22.4218 3.68788 24.855 3.85279C24.708 3.66873 24.5634 3.4838 24.4164 3.29976C23.9067 3.41367 23.3964 3.52927 22.8902 3.64338C22.5294 3.34431 23.0388 3.18596 21.5107 3.24927C20.2594 3.30123 21.0098 3.40986 20.6733 3.516C20.2172 3.66084 19.7964 3.42846 19.3029 3.58998C18.9211 3.71399 19.3491 3.95495 18.3396 3.93058C18.7307 3.57986 19.1301 3.21799 19.5246 2.8632C19.7736 2.92858 20.021 2.99523 20.2701 3.06151C20.0249 3.16079 19.7839 3.25877 19.5388 3.35813C20.4114 3.16226 21.222 2.97846 22.1147 2.77698C21.8412 3.27157 22.7628 3.05405 23.2656 2.97751C24.0487 2.85791 23.3876 3.2164 23.9012 3.14114C24.4149 3.06508 24.9574 2.67228 25.8946 2.71661C25.4021 2.95049 26.0903 3.11778 25.9662 3.32125C25.8417 3.52469 24.8558 3.60589 25.8127 3.78679C27.6319 3.55387 25.6225 2.87182 26.8515 2.70336C28.3287 2.50118 28.7277 3.72111 28.2949 4.00211C27.9545 4.22325 26.7568 4.22551 26.4148 4.44632C28.5693 4.74151 28.5626 4.00165 28.9241 3.84337C30.2389 3.26821 29.3929 4.70693 30.9557 4.14182C30.9353 4.40592 30.9196 4.64337 30.8988 4.89671C31.169 4.83908 31.3449 4.76901 31.6704 4.71946C30.6894 4.24089 31.4782 4.23501 31.883 4.22002C32.5206 4.19602 31.5268 3.98054 31.6934 3.91009C32.1428 3.72135 32.8665 3.77472 32.4163 3.5643C32.6184 3.66247 32.8372 3.76039 33.0446 3.8576C33.7855 3.70076 35.5047 2.54312 33.841 2.82182C33.9828 2.40854 34.5302 2.58614 34.9544 2.63394C35.3786 2.68169 35.362 2.42216 35.7349 2.45769C37.219 2.6004 36.267 3.07703 36.0446 3.43319C37.9887 3.12861 36.0704 3.03243 38.8824 2.78021C39.1459 2.48756 37.8333 2.22681 38.9129 2.02789C39.1287 2.5146 39.9388 2.84281 41.5036 2.95785C41.65 2.83979 41.7962 2.72074 41.9427 2.60271C42.8014 3.03175 42.3833 3.51814 43.9307 2.90611C43.1224 3.97027 43.679 3.28796 45.0939 3.66879C45.3812 3.74552 44.7296 3.98066 45.1304 4.07802C45.3121 4.12189 45.7449 3.94621 46.1892 4.05882C46.4061 4.11451 47.4237 4.4855 48.116 4.27529C47.5896 3.78684 48.9033 3.32063 47.7542 2.93708C49.859 2.9792 51.327 2.69686 48.9878 3.4493C49.526 3.58641 50.0651 3.723 50.6039 3.85957C50.9732 3.7292 51.3459 3.59975 51.7184 3.47027C51.7851 3.88239 51.7378 3.99948 53.1908 3.88747C52.5617 4.00207 51.9343 4.11846 51.2955 4.23459C51.2762 4.3187 51.1896 4.40795 51.2132 4.48841C52 4.30747 54.179 4.18048 54.7099 4.05658C55.2384 3.93251 54.2114 3.92942 54.3616 3.81863C55.613 2.90462 55.5294 3.55669 56.4413 3.38194C56.9767 3.27871 55.6904 3.21472 55.9771 3.16924C57.04 3.00216 57.5473 3.45753 58.4947 3.43976C58.1515 3.18257 57.8109 2.92124 57.4758 2.66148C58.4694 2.65036 59.5783 2.62524 60.5021 2.51752C60.8648 2.47542 60.5853 2.28455 60.6444 2.26987C60.9371 2.19479 62.1341 2.0586 62.2614 2.05482C63.2204 2.03062 63.2466 2.30378 64.1705 2.29742C63.8091 2.32892 63.4693 2.3577 63.1162 2.3883C62.966 2.83566 62.812 3.28309 62.6599 3.73135C63.5675 3.74226 64.4687 3.75308 65.3771 3.76482C64.7109 3.63168 64.0429 3.49951 63.3777 3.3668C64.4036 2.98431 65.4314 2.6015 66.4609 2.21919C67.006 2.42734 67.5493 2.63562 68.095 2.84404C69.563 2.75422 69.2486 1.86697 69.963 2.63509C70.3955 2.55975 70.8282 2.48453 71.2612 2.41019C71.2015 2.52319 71.1424 2.6364 71.0826 2.74939C71.6047 2.66984 72.1269 2.59087 72.6497 2.51074C72.0905 2.12625 71.542 1.72099 70.9888 1.34828C72.0177 1.24098 72.0448 1.57633 72.2002 1.65693C72.6125 1.87044 73.4174 1.55492 73.7455 1.7538C73.8572 1.82206 72.8494 2.06324 73.2033 2.31109C73.2757 2.35901 74.6374 3.26898 75.4903 3.03623C75.471 2.86684 75.4007 2.66005 75.3622 2.47613C76.5138 2.35077 77.1198 3.22565 76.9713 3.47679C77.583 3.29135 78.4828 3.26023 78.6044 2.98643C78.919 2.97404 79.2313 2.96207 79.5462 2.94977C79.2299 3.61692 80.5416 3.47243 80.618 2.9023C80.076 2.89782 79.5339 2.89273 78.9927 2.8885C79.3897 2.18426 77.7355 1.79257 81.172 2.37735C81.8335 2.72842 80.0067 2.34847 80.5453 2.61059C81.475 2.7522 82.344 2.60491 83.2314 2.84245C84.3335 3.13951 82.9959 3.46482 85.5365 3.02161C79.8865 2.10951 86.2992 2.32742 88.9281 1.97663C89.6696 2.95907 91.9031 3.23976 94.9849 2.90275C94.6596 2.63055 93.6911 2.78622 93.1314 2.70302C92.5717 2.6198 93.1734 2.44727 92.4762 2.32794C91.7785 2.2086 90.3 2.05458 89.5947 1.86989C90.1865 1.7042 93.124 1.29192 91.1849 1.76439C92.6412 2.01738 93.3274 2.28922 95.1326 2.31627C95.6678 1.87782 95.6246 1.60946 97.3707 1.57459C96.3453 2.18711 98.3356 2.57835 97.9064 3.2031C96.6659 3.07461 97.3505 2.46402 96.6307 2.1852C96.557 2.15732 95.4055 2.32332 95.1326 2.31627C96.3142 2.8412 96.7113 3.03743 96.006 3.68999C96.8279 3.62289 97.3413 3.69716 97.4124 3.38906C97.5858 3.52011 97.7601 3.65129 97.9308 3.7824C98.1989 3.77571 98.4402 3.76035 98.7246 3.7593C98.3272 3.30086 99.0898 3.57662 99.6275 3.36004C100.165 3.14327 99.4355 2.78612 100.92 2.76353C100.424 2.66091 99.9704 2.57327 99.4907 2.47643C100.446 2.34559 101.406 2.21433 102.363 2.08423C101.686 1.80871 100.223 1.40546 100.259 1.03257C100.701 1.16783 102.211 0.90316 102.377 0.89118C103.018 0.845832 102.671 1.0847 102.72 1.08994C103.729 1.19272 104.56 1.10382 104.947 1.45565C105.704 1.28698 106.28 1.37256 107.082 1.35536C107.522 1.34596 107.434 1.0854 107.692 1.13245C109.408 1.44695 107.777 1.79991 111.079 1.12618C110.676 0.947694 110.28 0.765025 109.877 0.585001C110.25 0.512789 110.621 0.440272 110.995 0.368165C111.245 0.399013 111.493 0.430155 111.744 0.46105C111.742 0.855969 111.739 1.25172 111.737 1.64664C112.012 1.66573 112.288 1.68422 112.563 1.70337C112.092 1.74636 111.62 1.78941 111.15 1.83257C111.107 1.90244 111.068 1.97232 111.025 2.04219C111.726 2.14348 112.424 2.24594 113.125 2.34843C113.137 2.21095 113.149 2.07251 113.162 1.93503C114.742 2.11299 114.781 2.229 116.281 1.83892C117.44 1.83411 118.381 1.25298 119.042 1.00656C119.282 1.08186 119.521 1.15817 119.763 1.23349C119.915 1.11819 120.069 1.00338 120.222 0.888097C120.526 1.045 120.835 1.20194 121.14 1.35808C121.306 0.996228 121.393 0.882896 120.208 0.764169C120.61 0.312595 122.698 0.497115 123.55 0.642906C124.197 0.753445 123.483 1.13194 123.564 1.17699C123.834 1.33002 124.897 1.19047 125.121 1.21493C126.068 1.31648 126.732 1.29433 127.588 1.37285C127.755 1.38858 128.222 1.62352 128.261 1.63078C128.57 1.66985 129.331 1.78162 129.417 1.78455C133.849 1.94272 129.108 0.933031 133.232 1.0253C133.108 0.890043 132.994 0.755659 132.872 0.6204C133.184 0.610959 133.499 0.60195 133.811 0.592576C134.207 0.704622 133.729 0.912531 134.514 0.743466C134.464 0.910871 134.413 1.07836 134.36 1.24494C134.701 1.15354 135.03 1.06294 135.38 0.971581C135.931 1.55006 137.939 1.67628 137.799 2.35805C137.75 2.58995 136.328 2.83181 137.081 3.07725C137.692 3.1243 137.277 2.84857 137.527 2.83337C139.328 2.72765 139.225 3.11621 139.962 3.01104C140.078 2.84447 140.199 2.67463 140.318 2.50641C140.596 2.55465 140.877 2.60293 141.155 2.65122C141.219 2.53933 141.286 2.42731 141.35 2.31542C141.091 2.30845 140.796 2.30147 140.555 2.29451C140.893 1.86065 143.947 1.66131 142.782 2.03224C142.307 2.18279 141.438 2.12067 141.988 2.63116C142.806 2.55607 143.735 2.47944 144.598 2.40477C144.625 2.51485 144.65 2.62514 144.677 2.73523C145.84 2.66269 144.782 2.22355 144.784 1.98759C145.05 1.98067 145.318 1.97459 145.585 1.96772C145.698 2.0743 145.805 2.18588 145.923 2.28917C145.934 2.11938 146.082 1.72453 146.877 1.87048C147.387 1.96552 146.583 2.39438 147.557 2.3344C147.484 2.06957 147.132 1.74707 148.217 1.66128C148.325 1.93769 148.474 2.19091 148.558 2.48143C149.909 2.21547 150.523 2.64235 152.112 2.33412C153.119 2.13908 154.486 1.44655 155.134 2.51594C155.867 2.54484 155.634 2.27848 155.851 2.21889C156.876 1.93691 157.638 2.44487 157.829 2.47496C159.047 2.66795 159.594 2.49358 160.588 2.73484C160.535 2.53685 160.506 2.34949 160.463 2.15649C159.551 2.45105 159.09 2.43622 157.814 2.37045C158.242 2.33138 158.67 2.29145 159.099 2.25249C159.029 2.09178 158.96 1.93105 158.893 1.77119C154.947 2.3977 155.867 1.39941 159.177 1.18627C159.462 1.48396 159.757 1.78091 160.039 2.07946C161.952 1.633 162.863 2.02611 165.02 2.12586C165.276 2.13729 166.209 1.96895 166.611 1.96181C166.604 1.96065 166.597 1.95949 166.591 1.95833C166.841 1.67851 166.504 1.54826 166.464 1.29731C166.682 1.26655 166.9 1.23593 167.117 1.2052C167.603 1.39803 167.431 1.55445 168.388 1.51229C168.26 1.32142 168.133 1.13053 168.005 0.939674C169.054 0.93672 169.74 1.14617 170.718 1.06062C170.553 1.132 170.391 1.2036 170.226 1.27499C172.354 1.46727 170.655 2.57986 172.267 2.02935C172.369 2.12745 172.468 2.22649 172.57 2.32459C171.907 2.34573 171.243 2.36627 170.584 2.38767C170.57 2.52583 170.555 2.66339 170.543 2.80155C171.252 2.76295 171.964 2.72321 172.673 2.68488C172.155 2.77537 171.634 2.86604 171.117 2.95667C171.938 3.02622 172.76 3.096 173.583 3.16592C172.711 2.6538 173.844 2.59669 173.633 2.09246C175.09 2.51803 176.232 3.07558 178.479 2.73396C178.925 2.66595 178.684 2.31285 179.948 2.74786C179.644 2.18651 181.233 1.93292 181.032 1.39958C180.591 1.42268 180.133 1.43623 179.706 1.4653C180.191 1.65264 180.269 2.16094 179.529 2.30756C178.584 2.49437 177.212 2.13529 177.266 2.69929C176.89 2.67088 176.541 2.65349 176.177 2.62935C176.327 2.49026 176.475 2.35027 176.623 2.21118C175.588 2.42523 174.924 2.35082 174.425 1.99598C175.673 1.92065 176.906 1.8465 178.145 1.77275C177.962 1.74781 177.778 1.72268 177.596 1.69859C178.535 1.34337 177.569 0.997025 179.319 0.929495C179.307 1.09415 179.298 1.25893 179.286 1.42442C179.925 0.98737 181.672 0.999851 181.118 0.489946C181.644 0.648644 181.751 0.74773 182.052 0.476388C183.442 0.869671 184.335 1.36228 183.835 1.94034C184.353 1.85004 184.872 1.75968 185.388 1.66949C185.089 1.50862 184.79 1.3485 184.492 1.18767C185.393 1.20333 186.301 1.21908 187.201 1.2343C187.284 1.70502 185.464 1.36534 185.987 1.78914C186.091 1.87419 186.578 1.69671 186.705 1.7451C188.047 2.26827 185.938 1.88261 186.332 2.27921C188.333 2.41448 186.733 3.06339 189.48 2.52802C189.551 2.66429 189.628 2.80333 189.694 2.93873C190.647 2.95378 190.572 2.64661 191.392 2.59476C191.905 2.56254 192.546 3.10587 193.116 2.74362C193.218 2.67684 192.268 2.01121 194.275 2.05593C195.834 2.09083 195.181 2.55072 196.023 2.72236C196.865 2.89394 198.803 2.26551 199.367 3.00159C198.925 2.9009 198.362 2.84382 197.871 2.76022C197.67 2.90091 197.475 3.04011 197.277 3.18001C198.399 3.00561 199.566 3.23238 200.316 2.89955C201.8 3.43177 203.472 2.96559 203.026 2.37524C202.535 2.45523 203.066 2.71573 202.386 2.5466C202.317 2.40936 202.245 2.27275 202.176 2.13551C203.337 2.16266 204.144 2.16646 203.61 2.57793C203.79 2.58955 203.969 2.60113 204.149 2.61276C204.184 2.31171 204.215 2.0095 204.25 1.70845C204.466 1.67653 204.682 1.64491 204.898 1.61302C205.137 1.68149 205.376 1.75074 205.617 1.82009C205.287 2.29387 204.732 2.30417 206.566 2.58855C206.573 2.42385 206.582 2.25983 206.589 2.09513C208.126 2.31969 208.162 2.71911 210.097 2.72397C208.606 3.28077 207.806 2.25888 207.8 3.40636C207.429 3.32733 207.055 3.24728 206.684 3.16831C206.625 3.33417 206.568 3.50027 206.512 3.66615C208.505 3.59758 211.852 2.53763 213.166 3.27756C213.328 3.19073 213.49 3.11548 213.655 3.02206C214.955 3.47407 215.53 2.497 216.85 3.07805C216.986 3.13904 216.689 4.05945 218.417 4.04592C218.375 3.92537 218.355 3.72304 218.322 3.5712C218.695 3.6491 219.067 3.73044 219.437 3.81003C219.506 3.69991 219.578 3.58988 219.647 3.47894C219.008 3.42852 218.372 3.37749 217.735 3.32724C218.266 3.29516 218.8 3.26313 219.331 3.23116C218.641 3.04197 218.329 3.03652 218.749 2.75085C219.35 2.74032 219.952 2.72882 220.553 2.71844C220.616 2.64475 220.679 2.57019 220.741 2.49651C220.453 2.27125 220.161 2.05087 219.873 1.82234C221.436 2.02174 222.802 2.04783 223.999 2.4986C224.202 2.57475 223.478 2.85501 224.87 2.61122C224.89 2.76456 224.925 2.88932 224.948 3.03113C226.655 2.62314 227.213 2.7581 228.987 3.09024C227.839 2.78672 228.864 2.98764 229.16 2.83656C229.362 2.73246 228.577 2.73825 228.668 2.62767C228.758 2.51786 229.783 2.08292 228.912 2.01796C226.764 2.9091 226.2 1.80409 223.452 2.21221C223.879 2.09894 224.303 1.9854 224.726 1.87215C224.529 1.78949 224.352 1.71453 224.138 1.62672C225.663 1.82489 224.922 1.69919 225.551 1.56533C226.181 1.43146 227.325 1.32539 228.092 1.29615C228.334 1.28697 228.077 1.48967 228.621 1.51573C228.992 1.53365 230.011 1.24135 230.241 1.60427C230.392 1.84052 228.752 2.46459 231.008 2.49211C231.43 2.72728 230.349 2.64195 230.325 2.66934C230.125 2.94 231.509 3.16329 232.153 2.9631C232.206 2.94578 231.702 2.72627 232.254 2.64994C233.564 2.46757 234.317 2.72182 235.16 3.06352C235.258 2.67732 236.365 2.22937 237.725 2.39129C237.797 2.28138 237.865 2.17044 237.936 2.0597C237.723 2.11547 237.511 2.17047 237.298 2.22626C237.068 2.15356 236.825 2.0996 236.6 2.01458C237.973 1.93798 238.174 1.40678 238.835 1.22051C241.098 0.584507 239.712 1.97717 239.303 2.21484C239.011 2.11225 238.729 1.99836 238.441 1.89087C238.471 2.02625 238.502 2.16267 238.53 2.29885C241.902 2.34164 239.031 3.18187 240.74 3.45667C241.19 2.79898 242.45 2.75271 244.049 3.19718C244.227 3.19643 244.406 3.19816 244.584 3.1966C244.615 3.10023 244.617 2.95226 244.666 2.88918C246.604 2.80471 246.935 3.83238 247.117 3.93191C247.926 4.37353 248.569 3.78862 248.807 3.78707C249.813 3.78142 250.102 4.04975 251.062 3.9509C252.095 3.84408 251.393 3.63086 251.71 3.45436C251.964 3.31424 252.778 3.30105 253.117 3.15703C252.982 3.27701 252.831 3.3944 252.696 3.51485C253.764 3.69762 254.636 3.87331 255.853 3.9329C257.24 3.06146 258.387 4.58633 257.932 3.35719C256.779 3.2553 256.137 3.10601 255.525 2.78511C256.282 2.75719 257.04 2.73041 257.799 2.70268C258.018 2.84025 258.173 2.97341 258.432 3.11412C259.003 2.83838 260.316 2.98161 260.832 2.90642C263.24 2.55372 262.505 2.05599 264.687 2.9082C263.103 2.96171 263.099 3.35816 261.533 3.27811C261.866 3.56669 262.664 3.52099 262.143 3.85202C263.661 3.7931 263.176 3.48212 263.771 3.22276C264.284 2.99918 265.311 3.00314 265.258 2.7008C265.36 2.86824 265.439 3.03 265.541 3.19722C266.525 3.21186 267.51 3.22818 268.496 3.2431C268.073 3.40903 267.65 3.57529 267.227 3.74044C267.543 3.81108 267.86 3.88149 268.177 3.95216C270.61 3.45456 274.78 4.51302 274.132 3.14976C275.298 3.12688 275.441 3.29899 276.07 3.56579C276.142 3.46439 276.211 3.38023 276.283 3.26723C277.033 3.3878 277.618 3.01268 278.281 3.12454C278.943 3.23564 279.102 3.60248 279.21 2.9925C279.637 3.17559 280.063 3.32895 280.488 3.49963C280.749 3.36526 281.009 3.2325 281.268 3.09894C281.67 3.179 282.074 3.25879 282.477 3.3389C282.699 3.05076 284.287 3.20529 284.993 3.02197C285.653 3.34884 285.618 4.33947 287.179 4.19039C287.144 3.94386 287.108 3.69806 287.073 3.45153C287.429 3.50938 287.786 3.56709 288.144 3.62502C288.164 3.70564 288.182 3.78621 288.202 3.86682C288.019 3.83864 287.84 3.81063 287.658 3.78163C287.814 3.9203 287.966 4.05828 288.12 4.1969C288.668 4.0058 289.218 3.81473 289.77 3.62376C289.034 3.4578 288.298 3.29181 287.562 3.12599C288.492 2.96253 289.134 3.15443 289.944 2.96821C290.64 3.32055 290.377 3.51128 290.085 3.87425C290.347 3.84763 290.611 3.82217 290.872 3.79558C290.694 4.1607 291.13 4.38828 289.607 4.33029C289.71 4.43727 289.815 4.53941 289.915 4.65048C290.165 4.63855 290.326 4.73035 290.601 4.69493C291.35 4.59789 291.936 3.9617 291.889 3.73393C291.864 3.61459 291.122 3.82807 291.155 3.66067C291.235 3.25244 292.923 3.4678 290.491 3.01106C291.306 2.76534 291.483 2.96535 292.375 3.05737C292.308 2.91957 292.242 2.78268 292.178 2.64494C292.591 2.71556 293.005 2.78599 293.418 2.85665C292.829 3.54693 295.882 3.8677 293.118 4.42934C293.93 4.47602 294.74 4.5229 295.551 4.57135C295.383 4.64019 295.214 4.70831 295.046 4.77716C294.68 4.73217 294.316 4.68786 293.951 4.64373C294.379 4.78341 294.809 4.92234 295.237 5.06206C296.259 4.91824 296.664 4.67504 297.137 4.37432C295.954 4.12587 296.336 4.44182 295.411 4.48567C295.447 4.29022 295.407 4.10907 295.492 3.90461C295.962 4.31972 297.526 4.05387 297.889 4.04093C298.991 4.00161 298.12 4.38416 298.853 4.40656C299.586 4.42884 300.455 4.20794 301.046 4.61517C301.04 4.39319 300.996 4.16281 300.957 3.96005C302.1 3.9092 301.868 4.16683 301.985 4.20305C303.861 4.79745 304.895 4.34637 307.06 4.33168C306.787 4.25759 306.51 4.19013 306.234 4.12014C307.876 3.68128 306.773 3.80383 305.359 3.62055C306.686 3.69367 307.455 3.30762 308.396 3.2069C309.335 3.10636 310.946 3.34431 311.527 3.51647C310.179 3.74805 308.726 3.54894 307.233 3.59082C307.398 3.82008 307.559 4.01453 307.729 4.26621C308.647 3.8099 309.168 4.13737 309.466 4.2062C310.342 4.4081 310.322 4.00058 310.845 4.44888C310.827 4.29786 310.814 4.17093 310.795 4.02985C312.603 4.12865 314.545 4.43388 315.735 3.90147C315.835 4.26534 315.909 4.61544 316.026 4.98708C316.798 4.73023 317.449 5.02231 318.096 4.97173C318.741 4.92102 318.502 4.62375 319.261 4.52651C319.401 4.50866 319.689 4.69754 320.037 4.56963C320.388 4.44106 321.694 3.45875 321.83 4.34295C322.48 4.36037 323.094 4.40518 323.731 4.43315C323.109 4.47007 322.487 4.50546 321.869 4.54251C322.393 4.76684 322.914 4.9905 323.439 5.21488C323.51 5.02588 323.582 4.83344 323.651 4.64687C325.076 4.44424 326.096 4.77667 327.53 4.73266C327.77 4.7252 327.213 4.3371 328.272 4.45502C329.333 4.57306 330.106 5.29196 331.924 5.05844C332.016 5.04628 332.564 4.51943 333.206 4.90553C333.352 4.99304 332.727 5.10494 333.064 5.22293C333.401 5.34094 334.915 5.46396 335.029 5.73052C335.014 5.63667 334.922 5.53779 334.878 5.44166C335.138 5.40241 335.4 5.36319 335.663 5.32484C335.684 5.49005 335.706 5.65555 335.727 5.81993C337.229 5.46816 337.999 4.85894 340.194 5.11243C339.581 4.86012 338.968 4.60687 338.359 4.35467C338.186 4.51913 338.013 4.68471 337.843 4.84923C336.835 4.76088 335.813 4.67275 334.798 4.58437C334.627 4.77207 334.459 4.95928 334.287 5.14699C334.018 5.1165 333.752 5.08685 333.483 5.05637C333.553 4.91956 333.624 4.78349 333.697 4.64673C333.163 4.66947 332.628 4.69294 332.097 4.71579C333.193 3.92241 335.114 4.84844 334.988 4.163C335.226 4.27393 335.464 4.38562 335.702 4.49739C335.813 4.16865 336.302 4.27423 337.158 4.34445C336.966 4.17725 336.752 4.01184 336.575 3.8433C337.405 4.09098 338.879 4.09979 339.741 4.20666C340.119 4.25359 339.735 4.48551 339.847 4.5161C340.422 4.67568 341.536 4.2805 341.766 4.31853C343.145 4.54499 344.027 5.3579 345.549 4.86712C343.992 4.70462 344.84 4.77731 344.291 4.47491C344.119 4.38011 342.109 4.14709 344.63 4.28534C344.924 4.3021 349.495 4.94889 347.98 5.3368C348.724 5.21864 349.31 5.07613 349.991 4.94836C351.621 6.09154 351.071 5.03877 350.603 4.4556C350.874 4.45896 351.132 4.45871 351.411 4.46474C350.805 5.05368 353.828 5.1564 354.863 4.87496C355.209 4.78144 354.251 4.56794 355.049 4.49416C355.427 4.54459 355.856 4.60857 356.256 4.66444C355.683 4.27107 356.827 4.14914 356.819 3.76148C357.542 4.12248 358.084 4.86621 357.674 5.25399C358.281 5.10657 358.891 4.95943 359.498 4.81123C359.22 4.71323 358.938 4.61597 358.66 4.51799C360.625 4.80428 363.183 4.30628 363.571 5.12884C363.831 5.12875 364.094 5.12952 364.355 5.12943C364.439 4.9938 364.519 4.85784 364.603 4.7222C365.779 4.86723 366.954 5.01306 368.132 5.15821C367.079 5.22035 366.824 5.41042 365.726 5.22742C366.147 5.39477 366.576 5.56317 366.989 5.73036C368.658 5.34142 368.89 5.06674 371.389 5.24858C371.502 5.25686 373.386 5.65545 373.45 5.69166C373.743 5.85713 373.288 6.07804 373.418 6.16126C373.779 6.3945 375.997 7.00918 375.952 7.0935C375.38 8.1275 367.887 7.97582 365.869 7.98548C344.881 8.08268 324.343 6.89828 303.486 6.62064C303.272 6.61845 303.362 6.77472 303.271 6.77957C302.703 6.80735 302.151 6.55586 301.941 6.54188C301.494 6.51276 301.736 6.73994 301.409 6.73378C298.04 6.66633 294.824 6.47448 291.44 6.44952C291.219 6.4479 291.448 6.27414 291.06 6.29839C290.859 6.31189 290.228 6.57328 289.777 6.56907C288.201 6.55398 286.886 6.44229 285.222 6.41617C284.309 6.40204 282.942 6.35414 281.923 6.34003C281.474 6.33373 281.003 6.45026 280.559 6.44652C279.929 6.4411 280.062 6.1902 279.965 6.17275C279.541 6.0965 279.477 6.37336 279.074 6.3596C278.324 6.33308 278.286 6.14681 277.334 6.14581C276.654 6.14543 275.096 6.26478 274.239 6.29304C272.243 6.04317 269.695 6.08526 267.823 6.12514C266.713 6.14877 266.615 5.88732 266.163 5.88063C264.571 5.85923 263.358 6.17123 261.866 6.15778C259.89 6.13976 258.117 5.89204 256.195 5.8461C255.882 5.83873 255.95 6.07788 255.644 6.0792C254.51 6.08382 253.061 6.1048 252.054 6.05549C250.932 6.00107 250.523 5.6493 249.424 5.70317C249.102 5.71924 249.004 6.02077 248.464 6.05163C247.599 6.09991 246.651 5.81874 246.048 5.78008C245.221 5.72825 245.936 6.04737 244.821 5.98974C244.775 5.98729 244.611 5.76424 244.371 5.7713C243.673 5.79103 243.74 5.96574 242.72 5.93458C242.622 5.93086 241.272 5.70144 241.138 5.69873C240.347 5.68422 238.758 5.58848 238.29 5.62676C236.619 5.76276 237.928 6.1126 236.519 5.37299C235.894 5.54082 235.264 5.71103 234.596 5.87345C235.043 5.71959 233.241 5.46498 233.115 5.47826C232.065 5.58454 232.685 5.87294 231.358 5.80927C233.12 5.1847 229.646 5.70352 228.875 5.71048C225.163 5.74371 221.78 5.54137 218.039 5.50307C216.787 5.49057 215.111 5.60889 213.791 5.5914C213.483 5.5879 213.717 5.43718 213.446 5.43097C213.176 5.4258 213.474 5.60101 213.166 5.58861C211.255 5.50861 209.733 5.16837 207.967 5.55645C207.881 5.49695 207.884 5.45063 207.743 5.3848C206.294 5.73372 203.523 5.21866 202.482 5.14219C200.853 5.02306 200.44 5.26513 199.252 5.20515C197.678 5.12512 195.323 4.62597 196.37 5.42683C195.292 5.44276 194.255 5.44131 193.169 5.35921C193.048 5.34992 193.133 5.14921 193.085 5.14469C192.778 5.11341 192.677 5.29294 192.47 5.29963C191.909 5.31762 192.826 5.10873 192.026 5.16295C191.603 5.19206 191.362 5.34742 190.192 5.34219C183.116 5.30779 175.449 5.20871 168.192 5.15694C167.695 5.15355 168.021 5.3494 167.398 5.33487C165.241 5.28415 161.348 4.94641 159.477 4.98791C157.606 5.02928 158.028 5.31486 156.858 5.4324C156.633 5.45527 156.818 5.29323 156.614 5.29048C155.24 5.27372 153.607 5.01923 152.497 4.98064C151.757 4.95479 151.816 5.21015 151.304 5.22825C150.54 5.25455 149.754 4.99664 149.347 4.98843C147.434 4.95244 146.121 5.16116 144.34 5.05729C144.41 5.11339 144.456 5.16535 144.515 5.22064C142.408 5.21402 140.305 5.20877 138.184 5.20507C138.284 5.25615 138.38 5.30768 138.48 5.35959C135.998 5.33786 136.281 4.78118 136.502 5.95524C136.322 5.99716 136.131 6.0457 135.958 6.0843C136.027 5.47894 134.525 5.0404 132.621 4.89363C132.481 4.88254 131.547 5.47631 131.646 4.77879C131.403 4.95033 131.258 5.06849 131.052 5.2192C130.649 5.00981 130.241 4.80301 129.838 4.59456C129.621 4.62698 129.4 4.65833 129.181 4.69079C129.15 4.82755 129.175 4.96927 129.106 5.10372C128.09 5.12897 126.01 4.97074 125.21 4.99263C123.222 5.04747 121.207 5.42962 119.665 5.04119C118.916 5.08709 119.662 5.34996 118.547 5.32394C118.42 5.18909 118.301 5.05984 118.169 4.92091C117.255 5.53414 117.06 5.16655 115.803 5.04961C114.953 4.9702 114.398 5.12296 113.59 5.1008C113.386 5.09507 113.413 4.91681 113.273 4.92379C112.804 4.94607 111.47 5.20284 111.14 5.21251C108.152 5.30419 105.577 5.30295 102.715 5.26974C102.408 5.26659 102.808 5.43776 102.49 5.43391C101.979 5.42803 102.277 5.15465 101.981 5.1448C101.155 5.11892 101.152 5.40358 100.002 5.43223C96.2318 5.52619 91.8438 5.37217 87.8952 5.41458C87.7717 5.4165 87.7818 5.58316 87.6475 5.5869C86.773 5.60868 85.885 5.39739 85.0926 5.41282C83.7727 5.43775 82.776 5.68895 81.4703 5.71086C78.9163 5.75469 76.639 5.67697 74.0284 5.72192C71.8768 5.75881 70.0057 5.81981 67.6548 5.87032C57.3799 6.09164 46.9136 6.90403 36.5583 6.9667C36.2948 6.96801 36.3971 6.81717 36.317 6.82622C35.556 6.9154 35.4949 7.11649 35.2097 6.70947C34.2413 6.82437 33.9457 7.14742 32.7747 7.16565C32.1508 7.17568 32.5991 6.67477 31.5537 6.96167C30.6101 7.22141 31.6725 7.4486 28.8115 7.28022C28.7358 7.27551 28.3534 6.99366 27.7641 7.09234C27.1722 7.19045 27.8678 7.37629 26.4396 7.49326C23.0927 7.76714 18.8389 7.6794 14.9367 7.9239C14.6919 7.93894 12.3495 8.19782 11.8907 8.29119C11.0003 8.47201 11.2017 8.68285 10.0355 8.78864C9.13095 8.8705 8.37265 8.6557 7.31213 8.75408C7.18867 8.76582 6.99289 9.03087 6.19367 9.034ZM204.157 1.44585C204.38 1.19688 204.786 0.276409 206.119 0.570541C206.245 0.598256 205.556 1.22715 206.292 1.3354C205.57 1.39545 204.867 1.41046 204.157 1.44683C204.157 1.4465 204.157 1.44618 204.157 1.44585ZM0.14741 3.42367C1.14314 3.42108 2.14394 3.41854 3.14271 3.41724C2.46044 3.56173 1.77782 3.70637 1.09999 3.85216C0.781475 3.7094 0.465732 3.5663 0.14741 3.42367ZM124.507 0.764783C124.506 0.764788 124.505 0.764794 124.504 0.764799C125.554 0.63959 126.607 0.514544 127.659 0.39011C127.549 0.478419 127.439 0.567107 127.328 0.655424C126.497 0.79784 125.667 0.940315 124.841 1.0832C124.73 0.977041 124.618 0.87093 124.507 0.764783ZM116.222 1.74954C115.548 1.65045 115.712 1.47325 115.341 1.3048C115.341 1.30512 115.341 1.30545 115.341 1.30577C115.243 1.26193 114.788 1.22654 114.612 1.22131C114.678 1.33089 114.762 1.43891 114.833 1.54763C113.268 1.82682 110.2 0.906091 114.161 0.490644C114.103 0.630192 114.047 0.769014 113.989 0.908564C115.959 0.853227 118.165 1.1387 116.222 1.74954ZM219.987 1.21184C221.675 0.776061 222.22 0.686423 224.256 1.02315C223.968 1.14874 223.678 1.2743 223.387 1.39989C223.051 1.2642 222.717 1.12946 222.381 0.993822C222.38 0.99381 222.38 0.993799 222.379 0.993787C222.309 1.13123 222.24 1.26892 222.174 1.4064C221.445 1.34147 220.715 1.27656 219.987 1.21184ZM51.9127 2.50956C51.4152 1.61344 51.5752 2.13763 52.8984 1.89667C53.3578 1.81307 52.904 1.6661 53.1902 1.6319C54.7369 1.44573 54.8778 2.05193 54.5396 2.37795C53.6616 2.42265 52.7788 2.46601 51.9156 2.50949C51.9146 2.50951 51.9137 2.50954 51.9127 2.50956ZM11.5665 4.12191C11.5655 4.12195 11.5646 4.12199 11.5636 4.12203C11.5137 3.90217 12.1356 3.8152 11.4221 3.63609C11.9578 3.6134 12.4941 3.59182 13.0334 3.56937C12.8761 3.59684 12.7155 3.62351 12.5583 3.65102C12.7012 3.72106 12.8444 3.79207 12.9873 3.86214C13.1669 3.59918 13.3503 3.73957 13.9181 3.80063C13.7506 3.53516 13.5838 3.26948 13.4163 3.00405C14.0753 3.05692 14.737 3.11025 15.3972 3.16364C15.4081 3.23189 15.4193 3.30024 15.4302 3.36848C15.6741 3.27041 15.9155 3.17152 16.1596 3.07352C16.2303 3.15259 16.2987 3.23102 16.3694 3.31009C16.6658 3.23561 16.9627 3.16122 17.2594 3.08602C17.3587 3.28063 16.7025 3.39346 17.8699 3.29498C17.5194 3.51317 17.1699 3.73079 16.8174 3.94923C15.0625 4.00545 13.3121 4.06277 11.5665 4.12191ZM64.069 1.9237C62.1476 2.00638 62.685 1.85018 63.12 1.38946C63.4353 1.56754 63.7536 1.74552 64.069 1.9237ZM163.539 1.4328C164.103 1.12713 164.663 0.824596 165.236 0.52989C166.374 0.361867 167.513 0.925589 166.655 1.14217C165.621 1.40208 164.553 1.10431 163.539 1.4328ZM189.538 1.42544C188.146 1.27309 189.459 0.917413 189.775 0.706946C190.158 1.05166 190.695 1.02539 191.559 1.07163C190.747 1.08769 189.768 1.45126 189.538 1.42641C189.538 1.42609 189.538 1.42576 189.538 1.42544ZM141.062 1.07823C140.501 1.08849 139.942 1.17546 139.439 1.07235C139.59 0.778269 140.596 1.04334 139.876 0.609488C140.235 0.601257 140.595 0.593296 140.952 0.584326C140.726 0.765164 141.031 0.899389 141.061 1.07726C141.061 1.07758 141.062 1.07791 141.062 1.07823ZM82.7659 1.20371C83.8725 1.53273 84.0859 1.38036 85.184 1.12142C85.3457 1.40192 84.0334 1.89767 83.2045 2.01617C83.0594 1.74538 82.9137 1.47443 82.7659 1.20371ZM342.599 3.38053C342.328 3.7357 340.383 3.74141 339.421 3.61433C339.537 3.56325 339.653 3.51147 339.769 3.45958C340.711 3.43316 341.657 3.40683 342.599 3.38053ZM191.97 1.09914C191.826 1.08748 191.689 1.07856 191.559 1.07163C191.703 1.06878 191.842 1.07597 191.97 1.09914ZM250.437 3.34375C249.973 3.67704 251.336 3.81189 249.681 3.65367C249.681 3.654 249.681 3.65432 249.681 3.65465C248.587 3.55047 248.347 3.52347 247.326 3.48186C247.7 3.05024 249.773 2.92473 246.92 2.79224C246.883 2.79128 246.954 3.05243 246.499 3.01016C246.358 2.99704 245.911 2.77699 245.228 2.70494C245.007 2.68186 243.346 2.5919 245.611 2.62069C245.548 2.31505 245.674 2.00847 245.673 1.71285C246.559 1.63988 247.231 2.24644 248.168 2.24572C249.552 2.24313 250.264 1.65056 250.518 2.44599C249.354 2.62282 247.353 2.59781 247.096 2.11802C245.965 2.09557 245.635 2.4808 246.544 2.68708C250.454 2.49989 247.607 3.28147 251.018 3.02145C251.06 2.912 251.201 2.79567 251.182 2.69189C252.215 3.09501 250.603 3.22451 250.437 3.34375ZM242.3 2.3825C242.976 2.15946 243.651 1.93459 244.325 1.71084C244.32 2.09 243.944 2.42483 242.88 2.62322C242.688 2.5427 242.492 2.46219 242.3 2.3825ZM298.921 3.23925C299.022 3.03498 299.283 2.85103 299.475 2.65845C299.674 2.836 304.509 3.09627 302.044 3.21919C301.686 3.23708 299.514 2.8307 298.921 3.23925ZM75.1446 1.65308C75.7162 1.78028 76.2858 1.90789 76.8553 2.03543C75.9842 2.13959 75.1136 2.24641 74.2447 2.35291C74.5452 2.11963 74.8436 1.88628 75.1446 1.65308ZM172.822 1.82716C172.581 1.81838 173.384 1.53834 172.432 1.57891C173.142 1.40063 173.808 1.25013 174.503 1.0828C174.71 1.2179 174.92 1.35247 175.127 1.48758C175.29 1.40225 175.455 1.31745 175.618 1.23214C175.52 1.42706 175.432 1.61747 175.329 1.81568C174.161 1.39119 173.89 1.86498 172.822 1.82716ZM138.16 2.55584C137.949 2.1317 139.64 1.87495 137.975 1.81123C138.29 1.53143 138.797 1.38375 139.773 1.35675C139.929 1.4631 140.086 1.56869 140.243 1.67506C140.264 1.3895 140.515 1.28283 141.062 1.07823C141.062 1.07856 141.063 1.07888 141.063 1.07921C142.535 1.0558 142.448 1.15132 142.803 1.62012C141.242 1.35769 141.201 1.78674 140.13 2.04393C139.395 2.22082 138.437 2.14375 138.16 2.55584ZM293.75 3.14613C294.864 2.80855 293.877 2.45549 295.835 2.87337C295.706 2.96203 295.577 3.0499 295.449 3.13856C294.883 3.14194 294.316 3.14433 293.75 3.14613ZM132.695 1.11763C132.824 1.77446 133.866 2.28236 134.04 1.21235C133.025 0.998198 133.522 1.60218 132.695 1.11763ZM189.055 2.45127C187.111 2.40692 187.484 1.66771 188.285 1.30232C188.408 1.43813 188.53 1.57419 188.65 1.70916C188.991 1.65029 189.333 1.59133 189.674 1.53335C189.468 1.83904 189.261 2.14556 189.055 2.45127ZM98.2905 2.11475C99.7727 1.62676 96.6813 1.87388 97.7169 1.56775C98.5434 1.32295 99.6441 1.78262 99.2338 2.08405C98.9463 2.09584 98.6264 2.10559 98.2934 2.11472C98.2924 2.11473 98.2914 2.11474 98.2905 2.11475ZM106.929 1.88279C106.678 1.38376 107.034 1.52623 105.852 1.62873C105.513 1.65767 102.831 1.49854 103.961 1.90186C104.918 1.89138 105.932 1.88793 106.929 1.88279ZM211.625 1.91655C211.641 2.13508 209.57 2.59333 209.307 2.4708C209.307 2.47112 209.307 2.47145 209.307 2.47177C208.595 2.13748 210.773 2.1132 209.833 1.65486C211.924 2.07116 212.552 1.12293 212.395 2.37972C211.17 2.42203 211.751 2.16874 211.625 1.91655ZM368.12 4.96261C368.121 4.96263 368.122 4.96265 368.123 4.96267C367.985 4.94936 366.854 4.60384 366.995 4.49587C368.361 4.62116 368.113 4.82674 369.395 4.50819C369.463 4.62138 369.52 4.73099 369.593 4.84513C369.086 4.90019 368.802 5.02815 368.12 4.96261ZM304.142 3.78045C303.638 3.82777 302.725 3.57329 302.152 3.57631C303.992 2.70262 306.157 3.59282 304.142 3.78045ZM30.4368 3.34192C30.4382 3.34154 30.4396 3.34116 30.4411 3.34079C30.4407 3.3413 30.4401 3.34179 30.4397 3.3423C30.4387 3.34218 30.4377 3.34205 30.4368 3.34192ZM265.146 2.53C265.21 2.59007 265.246 2.64193 265.258 2.68714C265.258 2.69137 265.258 2.6956 265.258 2.69983C265.224 2.644 265.187 2.58751 265.146 2.53ZM215.896 1.89654C216.749 2.21056 213.89 2.6634 212.971 2.53817C213.036 2.39983 213.048 2.27389 213.2 2.11581C213.939 2.4837 215.753 1.84359 215.896 1.89654ZM150.748 1.61944C153.014 1.62821 150.064 2.83027 149.944 1.87085C149.948 1.85225 150.689 1.62105 150.748 1.61944ZM198.086 1.848C197.506 2.20726 198.665 2.31367 196.812 2.23522C196.705 2.14001 196.598 2.04457 196.491 1.94936C197.022 1.91568 197.554 1.88155 198.086 1.848ZM165.543 3.22209C168.376 3.02775 171.099 2.68103 169.251 1.66971C169.036 1.70116 168.817 1.73156 168.602 1.76304C168.568 2.25285 167.776 1.9825 166.617 1.96281C166.451 2.15677 165.808 2.19973 165.687 2.36466C165.453 2.68345 166.19 2.91033 165.543 3.22209ZM45.5392 3.79913C45.5823 3.71419 45.6246 3.62884 45.6678 3.54473C46.114 3.43707 46.5616 3.32994 47.0084 3.22248C46.9405 3.38501 46.8724 3.54753 46.8045 3.71006C46.3827 3.73978 45.9633 3.76963 45.5421 3.79954C45.5411 3.7994 45.5401 3.79927 45.5392 3.79913ZM239.517 3.37706C239.788 2.46036 238.884 2.61713 237.052 3.0574C237.872 3.16382 238.696 3.2704 239.517 3.37706ZM119.868 2.9256C119.807 2.66452 119.747 2.40424 119.684 2.14319C118.717 2.42229 118.899 2.72052 119.365 3.06333C119.534 3.0175 119.699 2.97142 119.868 2.9256ZM105.875 3.1573C106.28 3.20764 106.071 2.99868 106.114 3.00247C107.141 3.10286 107.28 3.19826 108.527 3.02708C108.679 2.97013 108.829 2.91037 108.981 2.85179C108.399 2.30947 107.984 2.61204 106.759 2.30248C106.983 2.48815 107.202 2.67415 107.424 2.8607C106.75 2.82773 106.062 2.79561 105.38 2.76308C105.299 2.82189 105.219 2.88016 105.138 2.93897C105.382 3.01088 105.634 3.09195 105.875 3.1573ZM40.3427 3.72078C39.6775 3.72033 39.0098 3.71937 38.3459 3.7194C38.326 3.85506 38.3071 3.9916 38.2872 4.12726C38.9708 3.99157 39.6576 3.85595 40.3427 3.72078ZM253.117 3.15703C253.171 3.10997 253.222 3.0626 253.269 3.01433C253.263 3.07395 253.205 3.11966 253.117 3.15703ZM369.85 5.74111C370.599 5.85201 371.683 5.81396 372.508 5.85202C372.45 5.51212 370.353 5.55941 369.622 5.33806C369.503 5.39618 369.534 5.69441 369.85 5.74111ZM186.355 2.40289C186.165 2.57051 185.975 2.73734 185.788 2.90499C185.332 2.88377 184.875 2.86159 184.417 2.84047C184.403 2.97864 184.388 3.11802 184.374 3.2562C186.395 3.08953 185.927 3.48533 186.925 3.8852C186.734 3.39136 186.546 2.89754 186.355 2.40289ZM19.3194 5.35433C20.7789 5.20187 21.2815 5.00742 20.448 4.6254C19.9356 4.7411 19.4207 4.85716 18.9093 4.97317C19.0468 5.10014 19.1845 5.22724 19.3194 5.35433ZM279.632 3.90976C280.854 3.77645 280.864 4.33338 282.062 4.04393C281.425 3.92985 280.789 3.81469 280.156 3.70077C279.983 3.77028 279.805 3.84023 279.632 3.90976ZM219.85 4.54771C220.362 4.7473 221.335 3.83798 222.777 4.53474C223.125 4.33607 223.344 4.14497 223.643 3.9499C223.814 4.16806 224.006 4.38925 224.167 4.60565C224.168 4.60566 224.169 4.60568 224.169 4.60569C225.477 4.54871 224.633 4.26742 224.665 4.03845C224.68 3.94354 225.648 4.11433 225.348 3.90372C224.83 3.54209 222.867 3.72269 222.865 3.28967C223.557 3.43943 224.899 3.33748 224.506 3.04381C224.078 2.7215 222.797 3.23748 221.991 2.96482C223.143 3.67058 220.75 3.42846 220.484 2.8939C219.075 3.28578 220.363 3.46708 221.804 3.46506C220.92 3.862 222.217 3.6572 222.426 3.99832C221.516 4.19172 218.409 3.98549 219.85 4.54771ZM153.705 3.36476C154.671 3.33914 156.182 3.57364 156.846 3.23083C157.232 3.03105 155.716 2.87398 156.762 2.56082C155.819 2.59025 155.604 2.71295 155.764 2.98877C155.55 3.02162 155.332 3.05367 155.117 3.08572C155.018 3.03184 154.916 2.97867 154.817 2.92479C154.704 3.0381 154.591 3.15051 154.481 3.26382C154.253 3.24128 154.022 3.21873 153.794 3.1954C153.767 3.2524 153.722 3.302 153.705 3.36476ZM314.623 4.55648C314.354 4.5544 314.088 4.55236 313.819 4.55112C313.847 4.61884 313.881 4.68944 313.914 4.7591C313.937 4.8141 313.96 4.8691 313.983 4.9241C313.832 4.72622 312.559 4.37695 312.016 4.57423C311.743 4.67318 312.352 5.05584 311.203 5.09769C312.035 5.09516 312.807 5.05997 313.616 5.04469C313.541 5.15334 313.469 5.26321 313.394 5.37186C313.395 5.37203 313.395 5.3722 313.396 5.37238C313.664 5.40257 313.935 5.43402 314.203 5.46423C314.344 5.16147 314.482 4.85923 314.623 4.55648ZM120.658 3.43736C121.572 3.21522 121.878 3.10113 121.444 2.7545C121.443 2.75435 121.442 2.75419 121.441 2.75403C121.1 2.91103 120.76 3.068 120.42 3.22508C120.499 3.29576 120.577 3.36669 120.658 3.43736ZM261.015 4.43488C262.985 3.13934 258.578 3.88201 259.406 4.34752C259.443 4.36878 260.838 4.28543 261.015 4.43488ZM189.41 2.86199C188.876 2.86893 188.341 2.87489 187.804 2.88195C187.926 3.0459 188.052 3.20931 188.174 3.37327C188.585 3.20309 188.998 3.03208 189.41 2.86199ZM25.6683 5.7095C26.2449 6.05222 27.6964 6.13035 28.3904 5.70866C28.0167 5.67592 27.6431 5.6432 27.2698 5.61062C27.9706 5.53914 28.6642 5.46364 29.3719 5.395C29.3915 4.88647 28.584 5.21006 27.3506 5.11561C27.1596 5.10002 25.9209 4.51575 25.5199 5.00613C25.4391 5.10679 26.7331 5.12463 25.8462 5.44189C26.2395 5.44945 26.5781 5.43185 26.9499 5.43046C26.9813 5.55025 27.0124 5.6702 27.0466 5.78989C26.5858 5.76319 26.1285 5.73596 25.6683 5.7095ZM159.341 3.33246C160.673 3.36298 160.839 3.16068 161.117 2.80286C160.497 2.84208 159.876 2.88078 159.257 2.92022C159.286 3.05735 159.311 3.19451 159.341 3.33246ZM37.5602 5.40698C38.2912 5.4417 37.9694 5.16037 38.2612 5.09536C39.3646 4.8508 40.1296 5.03497 41.2249 4.86975C41.1538 4.92831 41.0884 4.98301 41.0198 5.03984C41.0209 5.03981 41.0218 5.03978 41.0227 5.03975C46.1984 5.12585 43.4731 4.54673 40.3697 4.75213C40.2933 4.64604 40.2198 4.53971 40.1435 4.43445C38.7563 4.66818 37.4812 4.8927 37.5602 5.40698ZM243.669 4.21518C243.727 4.28392 243.217 4.70804 244.165 4.51972C244.923 3.9007 243.691 4.19555 243.387 3.94891C243.643 3.89215 243.906 3.83712 244.16 3.78035C242.632 3.5803 242.408 3.72699 242.958 4.19522C242.998 4.22672 243.61 4.14665 243.669 4.21518ZM253.71 4.67554C253.934 3.75073 252 4.13843 252.066 4.42763C252.332 4.44318 252.541 4.28922 252.822 4.36303C253.106 4.43693 253.176 4.65481 253.71 4.67554ZM198.445 3.77243C198.502 3.77704 199.068 4.17202 199.014 3.86619C198.316 3.13728 196.893 3.5906 197.139 3.84437C197.608 3.83585 197.922 3.73005 198.445 3.7734C198.445 3.77308 198.445 3.77275 198.445 3.77243ZM16.9081 6.27499C16.9359 6.29965 18.3601 6.39793 18.5377 6.24512C18.6819 6.07521 18.7497 5.89664 18.8561 5.72249C18.0798 5.91129 16.4945 5.85707 16.911 6.27487C16.91 6.27491 16.9091 6.27495 16.9081 6.27499Z" fill="#28C7B3"/>
</svg>
